<?xml version="1.0" encoding="UTF-8" standalone="no"?>
<!-- Created with Inkscape (http://www.inkscape.org/) -->

<svg
   xmlns:dc="http://purl.org/dc/elements/1.1/"
   xmlns:cc="http://creativecommons.org/ns#"
   xmlns:rdf="http://www.w3.org/1999/02/22-rdf-syntax-ns#"
   xmlns:svg="http://www.w3.org/2000/svg"
   xmlns="http://www.w3.org/2000/svg"
   xmlns:xlink="http://www.w3.org/1999/xlink"
   xmlns:sodipodi="http://sodipodi.sourceforge.net/DTD/sodipodi-0.dtd"
   xmlns:inkscape="http://www.inkscape.org/namespaces/inkscape"
   width="58mm"
   height="58mm"
   viewBox="0 0 58 58"
   version="1.1"
   id="svg4695"
   inkscape:version="0.92.0 r15299"
   sodipodi:docname="sticker_2.svg">
  <defs
     id="defs4689">
    <color-profile
       name="Artifex-PS-CMYK-Profile"
       xlink:href="/usr/share/color/icc/ghostscript/ps_cmyk.icc"
       id="color-profile3" />
  </defs>
  <sodipodi:namedview
     id="base"
     pagecolor="#ffffff"
     bordercolor="#666666"
     borderopacity="1.0"
     inkscape:pageopacity="0.0"
     inkscape:pageshadow="2"
     inkscape:zoom="2.3021978"
     inkscape:cx="-130.27755"
     inkscape:cy="77.952444"
     inkscape:document-units="mm"
     inkscape:current-layer="layer1"
     showgrid="false"
     inkscape:window-width="1920"
     inkscape:window-height="1023"
     inkscape:window-x="0"
     inkscape:window-y="31"
     inkscape:window-maximized="1" />
  <metadata
     id="metadata4692">
    <rdf:RDF>
      <cc:Work
         rdf:about="">
        <dc:format>image/svg+xml</dc:format>
        <dc:type
           rdf:resource="http://purl.org/dc/dcmitype/StillImage" />
        <dc:title />
      </cc:Work>
    </rdf:RDF>
  </metadata>
  <g
     inkscape:label="Layer 1"
     inkscape:groupmode="layer"
     id="layer1"
     transform="translate(0,-239)">
    <path
       style="fill:#ff60ce;fill-opacity:1;stroke:none;stroke-width:8.16012001;stroke-miterlimit:4;stroke-dasharray:none;stroke-opacity:1"
       d="m 0,239 h 58 v 58 H 0 Z"
       id="rect5264-9-8" />
    <path
       d="M 51.105286,269.6658 V 297 H 6.893206 v -27.3342 z"
       id="rect6102-0-6-6"
       style="fill:#241c1c;fill-opacity:1;stroke:none;stroke-width:1.69258976;stroke-miterlimit:4;stroke-dasharray:none"
       inkscape:connector-curvature="0"
       sodipodi:nodetypes="ccccc" />
    <g
       style="fill:#241c1c;fill-opacity:1;stroke-width:7.97953176;stroke-miterlimit:4;stroke-dasharray:none"
       id="g6209-1-3-0"
       transform="matrix(0.18460532,0,0,0.20572146,-62.524188,294.45295)">
      <path
         style="fill:#241c1c;fill-opacity:1;stroke-width:7.97953176;stroke-miterlimit:4;stroke-dasharray:none"
         id="path5517-0-1-7"
         d="m 554.57755,-245.84176 h -92.649 v 83.333 h 92.649 z m -75.786,10.759 c -0.052,0.158 -0.13,0.309 -0.23,0.445 -0.352,0.61 -0.903,0.856 -1.417,0.856 -0.152,0 -0.302,-0.022 -0.441,-0.062 -0.739,-0.214 -1.222,-0.983 -1.146,-1.748 l 0.026,-0.267 0.112,-0.244 c 1.665,-3.605 9.573,-5.395 11.663,-5.58 0.895,-0.08 1.65,0.571 1.727,1.446 0.078,0.875 -0.57,1.648 -1.446,1.727 -2.684,0.238 -7.615,1.918 -8.848,3.427 z m 1.883,20.458 c 0,-5.388 7.491,-5.129 10.955,-5.129 3.464,0 10.523,0.538 10.523,5.926 0,5.387 -7.059,-1.195 -10.523,-1.195 -3.463,-0.001 -10.955,5.785 -10.955,0.398 z m 28.246,44.449 c -5.441,0 -9.854,-4.992 -9.854,-11.148 0,-6.156 4.413,-11.149 9.854,-11.149 5.442,0 9.854,4.992 9.854,11.148 0,6.156 -4.411,11.149 -9.854,11.149 z m 15.955,-44.848 c -3.463,0 -10.954,5.786 -10.954,0.398 0,-5.388 7.491,-5.129 10.954,-5.129 3.464,0 10.523,0.538 10.523,5.926 0,5.387 -7.06,-1.195 -10.523,-1.195 z m 17.132,-18.294 c -0.314,0.346 -0.746,0.521 -1.18,0.521 -0.381,0 -0.765,-0.137 -1.07,-0.414 -0.158,-0.144 -0.342,-0.318 -0.551,-0.515 -1.651,-1.563 -4.728,-4.475 -8.335,-4.783 -0.877,-0.075 -1.526,-0.847 -1.451,-1.723 0.074,-0.876 0.825,-1.53 1.723,-1.451 4.718,0.404 8.456,3.942 10.254,5.643 0.19,0.181 0.358,0.34 0.504,0.472 0.65,0.593 0.698,1.599 0.106,2.25 z"
         inkscape:connector-curvature="0" />
      <path
         style="fill:#241c1c;fill-opacity:1;stroke-width:7.97953176;stroke-miterlimit:4;stroke-dasharray:none"
         id="path5519-6-5-1"
         d="m 444.69555,-194.61376 c 0,7.34 -1.453,13.289 -3.245,13.289 h -3.596 v 18.816 h 17.901 v -83.333 l -17.901,17.285 v 20.656 h 3.596 c 1.792,-0.001 3.245,5.948 3.245,13.287 z"
         inkscape:connector-curvature="0" />
      <path
         style="fill:#241c1c;fill-opacity:1;stroke-width:7.97953176;stroke-miterlimit:4;stroke-dasharray:none"
         d="m 437.85455,-194.61375 a 3.75,13.288 0 0 1 -3.75,13.288 3.75,13.288 0 0 1 -3.75,-13.288 3.75,13.288 0 0 1 3.75,-13.288 3.75,13.288 0 0 1 3.75,13.288 z"
         id="ellipse5521-3-5-7" />
      <path
         style="fill:#241c1c;fill-opacity:1;stroke-width:7.97953176;stroke-miterlimit:4;stroke-dasharray:none"
         id="path5523-2-3-0"
         d="m 601.79055,-185.94976 c 8.778,-2.688 15.18,-10.865 15.18,-20.512 0,-6.077 -2.594,-11.893 -7.116,-15.958 -1.472,-1.323 -3.736,-1.201 -5.061,0.27 -1.322,1.472 -1.202,3.737 0.271,5.061 3.012,2.707 4.739,6.58 4.739,10.627 0,7.876 -6.407,14.284 -14.283,14.284 -7.876,0 -14.284,-6.408 -14.284,-14.284 0,-3.996 1.607,-7.699 4.526,-10.431 1.444,-1.352 1.52,-3.619 0.167,-5.065 -1.352,-1.444 -3.618,-1.52 -5.064,-0.167 -4.318,4.042 -6.795,9.75 -6.795,15.663 0,9.647 6.401,17.825 15.179,20.512 v 8.363 h -13.736 v 11.348 h 40.015 v -11.348 h -13.736 v -8.363 z"
         inkscape:connector-curvature="0" />
      <path
         transform="translate(359.56655,-300.47276)"
         style="fill:#241c1c;fill-opacity:1;stroke-width:7.97953176;stroke-miterlimit:4;stroke-dasharray:none"
         d="m 215.945,183.987 h 4.381 35.634 v -30.06 h -35.634 v -4.081 h 35.634 v -11.348 h -40.015 v 5.674 H 74.538 v 39.815 z"
         id="polygon5525-0-3-3" />
      <path
         style="fill:#241c1c;fill-opacity:1;stroke-width:7.97953176;stroke-miterlimit:4;stroke-dasharray:none"
         id="path5527-6-6-9"
         d="m 389.77455,-185.94976 v 8.363 h -13.736 v 11.348 h 40.014 v -11.348 h -13.736 v -8.363 c 8.778,-2.688 15.18,-10.865 15.18,-20.512 0,-6.077 -2.593,-11.893 -7.116,-15.958 -1.471,-1.323 -3.737,-1.201 -5.06,0.27 -1.323,1.472 -1.202,3.737 0.27,5.061 3.012,2.707 4.74,6.58 4.74,10.627 0,7.876 -6.408,14.284 -14.284,14.284 -7.875,0 -14.284,-6.408 -14.284,-14.284 0,-3.996 1.607,-7.699 4.526,-10.431 1.445,-1.352 1.52,-3.619 0.167,-5.065 -1.352,-1.444 -3.619,-1.52 -5.065,-0.167 -4.318,4.042 -6.795,9.75 -6.795,15.663 -10e-4,9.648 6.401,17.825 15.179,20.512 z"
         inkscape:connector-curvature="0" />
      <path
         style="fill:#241c1c;fill-opacity:1;stroke-width:7.97953176;stroke-miterlimit:4;stroke-dasharray:none"
         d="m 376.03854,-161.97476 h 40.014 v 11.348 h -40.014 z"
         id="rect5529-1-5-8" />
      <path
         transform="translate(359.56655,-300.47276)"
         style="fill:#241c1c;fill-opacity:1;stroke-width:7.97953176;stroke-miterlimit:4;stroke-dasharray:none"
         d="m 16.472,153.927 v 30.06 h 29.464 10.55 12.542 v -37.425 l -17.8,7.365 z"
         id="polygon5531-5-4-6" />
    </g>
    <g
       aria-label="FRRM"
       transform="scale(0.94589025,1.0572051)"
       style="font-style:italic;font-variant:normal;font-weight:bold;font-stretch:normal;font-size:17.34965324px;line-height:2.57871485px;font-family:sans-serif;-inkscape-font-specification:'sans-serif Bold Italic';letter-spacing:0px;word-spacing:0px;fill:#4ccec3;fill-opacity:1;stroke:none;stroke-width:1.59326375;stroke-linecap:butt;stroke-linejoin:miter;stroke-miterlimit:4;stroke-dasharray:none;stroke-opacity:1"
       id="text4491-3-0-4-5-9">
      <path
         d="m 6.2075641,258.83546 h 8.7934279 l -0.482876,2.46521 H 8.9862195 l -0.4574615,2.35508 h 5.209979 l -0.491348,2.46521 H 8.0458819 l -1.0419958,5.36247 H 3.7423546 Z"
         style="font-style:italic;font-variant:normal;font-weight:bold;font-stretch:normal;font-size:17.34965324px;font-family:sans-serif;-inkscape-font-specification:'sans-serif Bold Italic';fill:#4ccec3;fill-opacity:1;stroke-width:1.59326375"
         id="path4507" />
      <path
         d="m 20.639846,264.4436 q 1.109768,0 1.677359,-0.51676 0.576063,-0.51676 0.576063,-1.5164 0,-0.62689 -0.398161,-0.91492 -0.38969,-0.2965 -1.236841,-0.2965 h -1.34697 l -0.643835,3.24458 z m -1.804432,2.25343 -0.940337,4.7864 h -3.261532 l 2.46521,-12.64797 h 4.820289 q 2.083992,0 3.159873,0.77938 1.075882,0.77938 1.075882,2.29578 0,1.53335 -0.847151,2.52451 -0.847151,0.99117 -2.295779,1.13518 0.660778,0.13555 1.101296,0.67773 0.440519,0.5337 0.770908,1.64347 l 1.075881,3.59192 h -3.244588 l -0.948809,-3.14293 q -0.288031,-0.94034 -0.703135,-1.28767 -0.406633,-0.3558 -1.186012,-0.3558 z"
         style="font-style:italic;font-variant:normal;font-weight:bold;font-stretch:normal;font-size:17.34965324px;font-family:sans-serif;-inkscape-font-specification:'sans-serif Bold Italic';fill:#4ccec3;fill-opacity:1;stroke-width:1.59326375"
         id="path4509" />
      <path
         d="m 33.437275,264.4436 q 1.109768,0 1.677359,-0.51676 0.576063,-0.51676 0.576063,-1.5164 0,-0.62689 -0.398161,-0.91492 -0.38969,-0.2965 -1.236841,-0.2965 h -1.34697 l -0.643835,3.24458 z m -1.804432,2.25343 -0.940337,4.7864 h -3.261532 l 2.46521,-12.64797 h 4.820289 q 2.083992,0 3.159874,0.77938 1.075881,0.77938 1.075881,2.29578 0,1.53335 -0.847151,2.52451 -0.847151,0.99117 -2.295779,1.13518 0.660778,0.13555 1.101296,0.67773 0.440519,0.5337 0.770908,1.64347 l 1.075882,3.59192 h -3.244589 l -0.948809,-3.14293 q -0.288031,-0.94034 -0.703135,-1.28767 -0.406633,-0.3558 -1.186012,-0.3558 z"
         style="font-style:italic;font-variant:normal;font-weight:bold;font-stretch:normal;font-size:17.34965324px;font-family:sans-serif;-inkscape-font-specification:'sans-serif Bold Italic';fill:#4ccec3;fill-opacity:1;stroke-width:1.59326375"
         id="path4511" />
      <path
         d="m 42.83203,258.83546 h 4.007024 l 1.62653,6.71791 4.269642,-6.71791 h 4.167983 l -2.46521,12.64797 h -3.092101 l 1.804432,-9.33561 -4.388243,6.90429 h -1.753602 l -1.745131,-6.90429 -1.804432,9.33561 h -3.092101 z"
         style="font-style:italic;font-variant:normal;font-weight:bold;font-stretch:normal;font-size:17.34965324px;font-family:sans-serif;-inkscape-font-specification:'sans-serif Bold Italic';fill:#4ccec3;fill-opacity:1;stroke-width:1.59326375"
         id="path4513" />
    </g>
    <g
       aria-label="FRRM"
       transform="scale(0.94589025,1.0572051)"
       style="font-style:italic;font-variant:normal;font-weight:bold;font-stretch:normal;font-size:17.34965324px;line-height:2.57871485px;font-family:sans-serif;-inkscape-font-specification:'sans-serif Bold Italic';letter-spacing:0px;word-spacing:0px;fill:#f9f85e;fill-opacity:1;stroke:none;stroke-width:1.59326375;stroke-linecap:butt;stroke-linejoin:miter;stroke-miterlimit:4;stroke-dasharray:none;stroke-opacity:1"
       id="text4491-3-0-4-4-1-7">
      <path
         d="M 6.8798924,258.3325 H 15.67332 l -0.482876,2.46521 H 9.6585478 l -0.4574616,2.35508 H 14.411065 L 13.919717,265.618 H 8.7182101 l -1.0419958,5.36247 H 4.4146828 Z"
         style="font-style:italic;font-variant:normal;font-weight:bold;font-stretch:normal;font-size:17.34965324px;font-family:sans-serif;-inkscape-font-specification:'sans-serif Bold Italic';fill:#f9f85e;fill-opacity:1;stroke-width:1.59326375"
         id="path4516" />
      <path
         d="m 21.312174,263.94064 q 1.109768,0 1.677359,-0.51676 0.576063,-0.51676 0.576063,-1.5164 0,-0.62689 -0.398161,-0.91492 -0.389689,-0.2965 -1.236841,-0.2965 h -1.34697 l -0.643834,3.24458 z m -1.804431,2.25343 -0.940338,4.7864 h -3.261532 l 2.46521,-12.64797 h 4.820289 q 2.083992,0 3.159874,0.77938 1.075881,0.77938 1.075881,2.29578 0,1.53335 -0.847151,2.52451 -0.847151,0.99117 -2.295779,1.13518 0.660778,0.13555 1.101296,0.67773 0.440519,0.5337 0.770908,1.64347 l 1.075882,3.59192 h -3.244589 l -0.948809,-3.14293 q -0.288031,-0.94034 -0.703135,-1.28767 -0.406633,-0.3558 -1.186012,-0.3558 z"
         style="font-style:italic;font-variant:normal;font-weight:bold;font-stretch:normal;font-size:17.34965324px;font-family:sans-serif;-inkscape-font-specification:'sans-serif Bold Italic';fill:#f9f85e;fill-opacity:1;stroke-width:1.59326375"
         id="path4518" />
      <path
         d="m 34.109603,263.94064 q 1.109768,0 1.677359,-0.51676 0.576063,-0.51676 0.576063,-1.5164 0,-0.62689 -0.398161,-0.91492 -0.389689,-0.2965 -1.23684,-0.2965 h -1.346971 l -0.643834,3.24458 z m -1.804431,2.25343 -0.940338,4.7864 h -3.261532 l 2.46521,-12.64797 h 4.820289 q 2.083992,0 3.159874,0.77938 1.075882,0.77938 1.075882,2.29578 0,1.53335 -0.847151,2.52451 -0.847152,0.99117 -2.29578,1.13518 0.660778,0.13555 1.101297,0.67773 0.440518,0.5337 0.770907,1.64347 l 1.075882,3.59192 h -3.244589 l -0.948809,-3.14293 q -0.288031,-0.94034 -0.703135,-1.28767 -0.406633,-0.3558 -1.186012,-0.3558 z"
         style="font-style:italic;font-variant:normal;font-weight:bold;font-stretch:normal;font-size:17.34965324px;font-family:sans-serif;-inkscape-font-specification:'sans-serif Bold Italic';fill:#f9f85e;fill-opacity:1;stroke-width:1.59326375"
         id="path4520" />
      <path
         d="m 43.504358,258.3325 h 4.007025 l 1.62653,6.71791 4.269641,-6.71791 h 4.167983 l -2.465209,12.64797 h -3.092102 l 1.804432,-9.33561 -4.388242,6.90429 h -1.753603 l -1.745131,-6.90429 -1.804432,9.33561 h -3.092101 z"
         style="font-style:italic;font-variant:normal;font-weight:bold;font-stretch:normal;font-size:17.34965324px;font-family:sans-serif;-inkscape-font-specification:'sans-serif Bold Italic';fill:#f9f85e;fill-opacity:1;stroke-width:1.59326375"
         id="path4522" />
    </g>
    <g
       aria-label="Freiraum Hackerspace Ulm e.V."
       style="font-style:normal;font-variant:normal;font-weight:normal;font-stretch:normal;font-size:2.73511863px;line-height:6.41043425px;font-family:sans-serif;-inkscape-font-specification:sans-serif;letter-spacing:0px;word-spacing:0px;fill:#f9f85e;fill-opacity:1;stroke:none;stroke-width:0.25641736px;stroke-linecap:butt;stroke-linejoin:miter;stroke-opacity:1"
       id="text9407-4-9-1-2">
      <path
         d="m 8.326236,288.2719 h 1.1431941 l -0.044072,0.22703 H 8.5506012 l -0.1148536,0.58763 h 0.7906202 l -0.044072,0.22703 H 8.3916758 l -0.1856354,0.95222 h -0.268437 z"
         style="font-style:italic;font-variant:normal;font-weight:normal;font-stretch:normal;font-size:2.73511863px;font-family:sans-serif;-inkscape-font-specification:'sans-serif Italic';fill:#f9f85e;fill-opacity:1;stroke-width:0.25641736px"
         id="path4525" />
      <path
         d="m 10.659367,288.99708 q -0.03739,-0.02 -0.08547,-0.0307 -0.04808,-0.0107 -0.102834,-0.0107 -0.196319,0 -0.343225,0.14957 -0.1469057,0.14824 -0.1949839,0.39798 l -0.1509123,0.76258 H 9.5362054 l 0.2924761,-1.49577 h 0.2457335 l -0.04674,0.23238 q 0.09749,-0.12955 0.232378,-0.19899 0.136222,-0.0695 0.289805,-0.0695 0.04007,0 0.07879,0.005 0.03873,0.004 0.07746,0.0147 z"
         style="font-style:italic;font-variant:normal;font-weight:normal;font-stretch:normal;font-size:2.73511863px;font-family:sans-serif;-inkscape-font-specification:'sans-serif Italic';fill:#f9f85e;fill-opacity:1;stroke-width:0.25641736px"
         id="path4527" />
      <path
         d="m 11.882691,289.38437 q 0.004,-0.0214 0.0053,-0.0441 0.0027,-0.0227 0.0027,-0.0454 0,-0.16293 -0.09616,-0.25775 -0.09482,-0.0948 -0.259088,-0.0948 -0.182965,0 -0.323193,0.11619 -0.140228,0.11485 -0.212346,0.3272 z m 0.213682,0.19232 h -1.143195 q -0.008,0.0507 -0.01068,0.0801 -0.0027,0.0294 -0.0027,0.0507 0,0.18563 0.113518,0.28713 0.114854,0.1015 0.323193,0.1015 0.160261,0 0.30316,-0.0361 0.1429,-0.0361 0.265766,-0.10551 l -0.04674,0.24307 q -0.132215,0.0534 -0.273778,0.0801 -0.140229,0.0267 -0.285799,0.0267 -0.311173,0 -0.479447,-0.14824 -0.166938,-0.14958 -0.166938,-0.42336 0,-0.23371 0.0828,-0.43404 0.08414,-0.20166 0.245733,-0.35925 0.10417,-0.0988 0.247069,-0.15225 0.144235,-0.0534 0.305831,-0.0534 0.253747,0 0.403323,0.15225 0.150913,0.15225 0.150913,0.40866 0,0.0614 -0.008,0.13222 -0.008,0.0694 -0.02404,0.14958 z"
         style="font-style:italic;font-variant:normal;font-weight:normal;font-stretch:normal;font-size:2.73511863px;font-family:sans-serif;-inkscape-font-specification:'sans-serif Italic';fill:#f9f85e;fill-opacity:1;stroke-width:0.25641736px"
         id="path4529" />
      <path
         d="m 12.750771,288.18776 h 0.245734 l -0.0601,0.31117 h -0.245734 z m -0.112182,0.58228 h 0.245733 l -0.292476,1.49577 h -0.245733 z"
         style="font-style:italic;font-variant:normal;font-weight:normal;font-stretch:normal;font-size:2.73511863px;font-family:sans-serif;-inkscape-font-specification:'sans-serif Italic';fill:#f9f85e;fill-opacity:1;stroke-width:0.25641736px"
         id="path4531" />
      <path
         d="m 14.227842,288.99708 q -0.03739,-0.02 -0.08547,-0.0307 -0.04808,-0.0107 -0.102835,-0.0107 -0.196319,0 -0.343225,0.14957 -0.146906,0.14824 -0.194984,0.39798 l -0.150912,0.76258 H 13.10468 l 0.292477,-1.49577 h 0.245733 l -0.04674,0.23238 q 0.09749,-0.12955 0.232378,-0.19899 0.136222,-0.0695 0.289805,-0.0695 0.04007,0 0.07879,0.005 0.03873,0.004 0.07746,0.0147 z"
         style="font-style:italic;font-variant:normal;font-weight:normal;font-stretch:normal;font-size:2.73511863px;font-family:sans-serif;-inkscape-font-specification:'sans-serif Italic';fill:#f9f85e;fill-opacity:1;stroke-width:0.25641736px"
         id="path4533" />
      <path
         d="m 15.60475,289.41242 -0.166938,0.85339 h -0.245734 l 0.04541,-0.22704 q -0.108177,0.13355 -0.247069,0.20033 -0.137558,0.0654 -0.307167,0.0654 -0.190977,0 -0.313844,-0.11619 -0.121531,-0.11753 -0.121531,-0.30049 0,-0.26176 0.208339,-0.41401 0.209674,-0.15225 0.576939,-0.15225 h 0.34189 l 0.01336,-0.0654 q 0.0027,-0.0107 0.004,-0.0227 0.0013,-0.0134 0.0013,-0.0401 0,-0.11886 -0.09749,-0.1843 -0.09616,-0.0668 -0.271108,-0.0668 -0.120196,0 -0.247069,0.0307 -0.125538,0.0307 -0.259088,0.0921 l 0.04274,-0.22704 q 0.138893,-0.0521 0.271108,-0.0775 0.133551,-0.0267 0.257753,-0.0267 0.26443,0 0.401987,0.11486 0.138893,0.11485 0.138893,0.33387 0,0.0441 -0.0067,0.10417 -0.0067,0.0588 -0.02003,0.12554 z m -0.265766,0.1015 h -0.245733 q -0.301825,0 -0.447395,0.0815 -0.144235,0.0801 -0.144235,0.24974 0,0.11753 0.07345,0.1843 0.07479,0.0668 0.205668,0.0668 0.200326,0 0.349903,-0.1429 0.149577,-0.14424 0.197655,-0.38463 z"
         style="font-style:italic;font-variant:normal;font-weight:normal;font-stretch:normal;font-size:2.73511863px;font-family:sans-serif;-inkscape-font-specification:'sans-serif Italic';fill:#f9f85e;fill-opacity:1;stroke-width:0.25641736px"
         id="path4535" />
      <path
         d="m 15.996053,289.67284 0.174952,-0.9028 h 0.247069 l -0.174952,0.89345 q -0.01336,0.0654 -0.02003,0.11219 -0.0053,0.0467 -0.0053,0.0775 0,0.11351 0.06945,0.17628 0.06945,0.0614 0.196319,0.0614 0.197656,0 0.34189,-0.13355 0.144235,-0.13355 0.188307,-0.35926 l 0.164267,-0.82801 h 0.245734 l -0.289806,1.49577 h -0.245733 l 0.04941,-0.23505 q -0.10417,0.13088 -0.248404,0.203 -0.1429,0.0708 -0.304496,0.0708 -0.19632,0 -0.305831,-0.10684 -0.109512,-0.10818 -0.109512,-0.30049 0,-0.0401 0.0067,-0.10016 0.0067,-0.0601 0.02003,-0.12421 z"
         style="font-style:italic;font-variant:normal;font-weight:normal;font-stretch:normal;font-size:2.73511863px;font-family:sans-serif;-inkscape-font-specification:'sans-serif Italic';fill:#f9f85e;fill-opacity:1;stroke-width:0.25641736px"
         id="path4537" />
      <path
         d="m 20.005246,289.36301 -0.174952,0.9028 h -0.245733 l 0.172281,-0.89479 q 0.01068,-0.0574 0.01603,-0.0988 0.0053,-0.0414 0.0053,-0.0708 0,-0.1202 -0.06678,-0.18697 -0.06677,-0.0668 -0.186971,-0.0668 -0.178958,0 -0.319186,0.13489 -0.140228,0.13355 -0.181629,0.34857 l -0.164267,0.83469 h -0.245734 l 0.174952,-0.89479 q 0.01068,-0.0494 0.01603,-0.0908 0.0053,-0.0427 0.0053,-0.0761 0,-0.12153 -0.06677,-0.18831 -0.06678,-0.0681 -0.1843,-0.0681 -0.181629,0 -0.321858,0.13489 -0.140228,0.13355 -0.181629,0.34857 l -0.164267,0.83469 h -0.245733 l 0.292476,-1.49577 h 0.245733 l -0.04674,0.23238 q 0.100163,-0.13088 0.233714,-0.19899 0.134886,-0.0695 0.28847,-0.0695 0.162932,0 0.267101,0.0855 0.105505,0.0855 0.126873,0.23772 0.112183,-0.15759 0.259089,-0.24039 0.148241,-0.0828 0.312508,-0.0828 0.192313,0 0.296483,0.11085 0.105505,0.11085 0.105505,0.31384 0,0.0441 -0.0053,0.0975 -0.0053,0.0521 -0.01603,0.10685 z"
         style="font-style:italic;font-variant:normal;font-weight:normal;font-stretch:normal;font-size:2.73511863px;font-family:sans-serif;-inkscape-font-specification:'sans-serif Italic';fill:#f9f85e;fill-opacity:1;stroke-width:0.25641736px"
         id="path4539" />
      <path
         d="m 21.547757,288.2719 h 0.271108 l -0.158925,0.81733 h 0.978927 l 0.158925,-0.81733 H 23.0689 l -0.388633,1.99391 h -0.271108 l 0.185636,-0.94955 h -0.978927 l -0.185635,0.94955 h -0.271108 z"
         style="font-style:italic;font-variant:normal;font-weight:normal;font-stretch:normal;font-size:2.73511863px;font-family:sans-serif;-inkscape-font-specification:'sans-serif Italic';fill:#f9f85e;fill-opacity:1;stroke-width:0.25641736px"
         id="path4541" />
      <path
         d="m 24.61141,289.41242 -0.166938,0.85339 h -0.245733 l 0.04541,-0.22704 q -0.108176,0.13355 -0.247069,0.20033 -0.137557,0.0654 -0.307166,0.0654 -0.190978,0 -0.313845,-0.11619 -0.121531,-0.11753 -0.121531,-0.30049 0,-0.26176 0.208339,-0.41401 0.209675,-0.15225 0.576939,-0.15225 h 0.34189 l 0.01335,-0.0654 q 0.0027,-0.0107 0.004,-0.0227 0.0013,-0.0134 0.0013,-0.0401 0,-0.11886 -0.09749,-0.1843 -0.09616,-0.0668 -0.271108,-0.0668 -0.120195,0 -0.247068,0.0307 -0.125538,0.0307 -0.259089,0.0921 l 0.04274,-0.22704 q 0.138893,-0.0521 0.271108,-0.0775 0.133551,-0.0267 0.257753,-0.0267 0.264431,0 0.401988,0.11486 0.138893,0.11485 0.138893,0.33387 0,0.0441 -0.0067,0.10417 -0.0067,0.0588 -0.02003,0.12554 z m -0.265765,0.1015 h -0.245734 q -0.301824,0 -0.447395,0.0815 -0.144234,0.0801 -0.144234,0.24974 0,0.11753 0.07345,0.1843 0.07479,0.0668 0.205669,0.0668 0.200326,0 0.349902,-0.1429 0.149577,-0.14424 0.197655,-0.38463 z"
         style="font-style:italic;font-variant:normal;font-weight:normal;font-stretch:normal;font-size:2.73511863px;font-family:sans-serif;-inkscape-font-specification:'sans-serif Italic';fill:#f9f85e;fill-opacity:1;stroke-width:0.25641736px"
         id="path4543" />
      <path
         d="m 26.286136,288.82747 -0.04941,0.24306 q -0.08814,-0.0641 -0.188306,-0.0962 -0.09883,-0.0321 -0.205668,-0.0321 -0.117525,0 -0.224365,0.0414 -0.105505,0.0414 -0.177623,0.11753 -0.114853,0.11618 -0.177622,0.27244 -0.06277,0.15625 -0.06277,0.32319 0,0.20166 0.100163,0.30049 0.101498,0.0988 0.307167,0.0988 0.101498,0 0.215016,-0.0307 0.114854,-0.0307 0.239056,-0.0922 l -0.04674,0.24306 q -0.10684,0.0441 -0.220358,0.0654 -0.112183,0.0227 -0.231043,0.0227 -0.297818,0 -0.458079,-0.14824 -0.160261,-0.14958 -0.160261,-0.42603 0,-0.23238 0.0828,-0.42736 0.08414,-0.19632 0.248405,-0.35258 0.112182,-0.10684 0.263095,-0.16159 0.150912,-0.0548 0.32987,-0.0548 0.10417,0 0.207004,0.024 0.102834,0.0227 0.209674,0.0695 z"
         style="font-style:italic;font-variant:normal;font-weight:normal;font-stretch:normal;font-size:2.73511863px;font-family:sans-serif;-inkscape-font-specification:'sans-serif Italic';fill:#f9f85e;fill-opacity:1;stroke-width:0.25641736px"
         id="path4545" />
      <path
         d="m 26.827017,288.18776 h 0.245733 l -0.235049,1.2113 0.842705,-0.62902 h 0.319186 l -0.940197,0.71583 0.686451,0.77994 h -0.297818 l -0.638372,-0.73052 -0.141564,0.73052 h -0.245734 z"
         style="font-style:italic;font-variant:normal;font-weight:normal;font-stretch:normal;font-size:2.73511863px;font-family:sans-serif;-inkscape-font-specification:'sans-serif Italic';fill:#f9f85e;fill-opacity:1;stroke-width:0.25641736px"
         id="path4547" />
      <path
         d="m 29.228259,289.38437 q 0.004,-0.0214 0.0053,-0.0441 0.0027,-0.0227 0.0027,-0.0454 0,-0.16293 -0.09616,-0.25775 -0.09482,-0.0948 -0.259088,-0.0948 -0.182965,0 -0.323193,0.11619 -0.140228,0.11485 -0.212346,0.3272 z m 0.213681,0.19232 h -1.143194 q -0.008,0.0507 -0.01068,0.0801 -0.0027,0.0294 -0.0027,0.0507 0,0.18563 0.113518,0.28713 0.114853,0.1015 0.323192,0.1015 0.160261,0 0.303161,-0.0361 0.142899,-0.0361 0.265765,-0.10551 l -0.04674,0.24307 q -0.132215,0.0534 -0.273779,0.0801 -0.140228,0.0267 -0.285799,0.0267 -0.311173,0 -0.479447,-0.14824 -0.166938,-0.14958 -0.166938,-0.42336 0,-0.23371 0.0828,-0.43404 0.08414,-0.20166 0.245734,-0.35925 0.104169,-0.0988 0.247068,-0.15225 0.144235,-0.0534 0.305831,-0.0534 0.253747,0 0.403324,0.15225 0.150912,0.15225 0.150912,0.40866 0,0.0614 -0.008,0.13222 -0.008,0.0694 -0.02404,0.14958 z"
         style="font-style:italic;font-variant:normal;font-weight:normal;font-stretch:normal;font-size:2.73511863px;font-family:sans-serif;-inkscape-font-specification:'sans-serif Italic';fill:#f9f85e;fill-opacity:1;stroke-width:0.25641736px"
         id="path4549" />
      <path
         d="m 30.814841,288.99708 q -0.03739,-0.02 -0.08547,-0.0307 -0.04808,-0.0107 -0.102834,-0.0107 -0.19632,0 -0.343225,0.14957 -0.146906,0.14824 -0.194985,0.39798 l -0.150912,0.76258 H 29.69168 l 0.292476,-1.49577 h 0.245733 l -0.04674,0.23238 q 0.09749,-0.12955 0.232378,-0.19899 0.136221,-0.0695 0.289805,-0.0695 0.04006,0 0.07879,0.005 0.03873,0.004 0.07746,0.0147 z"
         style="font-style:italic;font-variant:normal;font-weight:normal;font-stretch:normal;font-size:2.73511863px;font-family:sans-serif;-inkscape-font-specification:'sans-serif Italic';fill:#f9f85e;fill-opacity:1;stroke-width:0.25641736px"
         id="path4551" />
      <path
         d="m 32.090249,288.81411 -0.04674,0.23238 q -0.09749,-0.0534 -0.205668,-0.0801 -0.108177,-0.0267 -0.22303,-0.0267 -0.193649,0 -0.305831,0.0668 -0.110847,0.0654 -0.110847,0.17896 0,0.13222 0.259088,0.203 0.02003,0.005 0.02938,0.008 l 0.07879,0.024 q 0.245733,0.0681 0.327199,0.1429 0.0828,0.0748 0.0828,0.20433 0,0.23772 -0.189642,0.3873 -0.188307,0.14958 -0.494138,0.14958 -0.11886,0 -0.24974,-0.0227 -0.130879,-0.0227 -0.288469,-0.0708 l 0.04808,-0.25374 q 0.134886,0.0694 0.265766,0.1055 0.13088,0.0361 0.251075,0.0361 0.180294,0 0.292476,-0.0775 0.113518,-0.0775 0.113518,-0.19632 0,-0.12821 -0.296482,-0.207 l -0.02538,-0.007 -0.08414,-0.0214 q -0.186971,-0.0494 -0.273779,-0.12954 -0.08681,-0.0815 -0.08681,-0.20701 0,-0.23905 0.178958,-0.37928 0.180294,-0.14023 0.488796,-0.14023 0.121531,0 0.236385,0.02 0.116189,0.02 0.228371,0.0601 z"
         style="font-style:italic;font-variant:normal;font-weight:normal;font-stretch:normal;font-size:2.73511863px;font-family:sans-serif;-inkscape-font-specification:'sans-serif Italic';fill:#f9f85e;fill-opacity:1;stroke-width:0.25641736px"
         id="path4553" />
      <path
         d="m 33.505888,289.34431 q 0,-0.19632 -0.08547,-0.30049 -0.08547,-0.10417 -0.245733,-0.10417 -0.109512,0 -0.209675,0.0561 -0.09883,0.0561 -0.176287,0.16293 -0.07612,0.10551 -0.121531,0.25508 -0.04541,0.14958 -0.04541,0.29649 0,0.18697 0.08547,0.28847 0.08547,0.10016 0.243062,0.10016 0.116189,0 0.215017,-0.0548 0.100163,-0.0548 0.170945,-0.15892 0.07612,-0.10951 0.122867,-0.25775 0.04674,-0.14825 0.04674,-0.28313 z m -0.761239,-0.34723 q 0.09883,-0.12955 0.232378,-0.19632 0.134887,-0.0668 0.299154,-0.0668 0.229707,0 0.35658,0.15091 0.126874,0.14958 0.126874,0.42069 0,0.22169 -0.07879,0.42335 -0.0788,0.20033 -0.227036,0.35926 -0.09883,0.1055 -0.22303,0.16159 -0.124202,0.0548 -0.26176,0.0548 -0.158925,0 -0.267101,-0.0654 -0.108176,-0.0668 -0.161596,-0.19766 l -0.153584,0.79329 H 32.141 l 0.401988,-2.06469 h 0.245733 z"
         style="font-style:italic;font-variant:normal;font-weight:normal;font-stretch:normal;font-size:2.73511863px;font-family:sans-serif;-inkscape-font-specification:'sans-serif Italic';fill:#f9f85e;fill-opacity:1;stroke-width:0.25641736px"
         id="path4555" />
      <path
         d="m 35.354229,289.41242 -0.166938,0.85339 h -0.245733 l 0.04541,-0.22704 q -0.108176,0.13355 -0.247069,0.20033 -0.137557,0.0654 -0.307167,0.0654 -0.190977,0 -0.313844,-0.11619 -0.121531,-0.11753 -0.121531,-0.30049 0,-0.26176 0.208339,-0.41401 0.209675,-0.15225 0.576939,-0.15225 h 0.34189 l 0.01336,-0.0654 q 0.0027,-0.0107 0.004,-0.0227 0.0013,-0.0134 0.0013,-0.0401 0,-0.11886 -0.09749,-0.1843 -0.09616,-0.0668 -0.271108,-0.0668 -0.120195,0 -0.247069,0.0307 -0.125537,0.0307 -0.259088,0.0921 l 0.04274,-0.22704 q 0.138893,-0.0521 0.271108,-0.0775 0.133551,-0.0267 0.257753,-0.0267 0.26443,0 0.401988,0.11486 0.138892,0.11485 0.138892,0.33387 0,0.0441 -0.0067,0.10417 -0.0067,0.0588 -0.02003,0.12554 z m -0.265766,0.1015 H 34.84273 q -0.301825,0 -0.447395,0.0815 -0.144235,0.0801 -0.144235,0.24974 0,0.11753 0.07345,0.1843 0.07479,0.0668 0.205668,0.0668 0.200326,0 0.349903,-0.1429 0.149577,-0.14424 0.197655,-0.38463 z"
         style="font-style:italic;font-variant:normal;font-weight:normal;font-stretch:normal;font-size:2.73511863px;font-family:sans-serif;-inkscape-font-specification:'sans-serif Italic';fill:#f9f85e;fill-opacity:1;stroke-width:0.25641736px"
         id="path4557" />
      <path
         d="m 37.028955,288.82747 -0.04941,0.24306 q -0.08814,-0.0641 -0.188306,-0.0962 -0.09883,-0.0321 -0.205668,-0.0321 -0.117525,0 -0.224366,0.0414 -0.105505,0.0414 -0.177622,0.11753 -0.114854,0.11618 -0.177622,0.27244 -0.06277,0.15625 -0.06277,0.32319 0,0.20166 0.100163,0.30049 0.101498,0.0988 0.307166,0.0988 0.101499,0 0.215017,-0.0307 0.114854,-0.0307 0.239056,-0.0922 l -0.04674,0.24306 q -0.10684,0.0441 -0.220359,0.0654 -0.112182,0.0227 -0.231042,0.0227 -0.297818,0 -0.458079,-0.14824 -0.160261,-0.14958 -0.160261,-0.42603 0,-0.23238 0.0828,-0.42736 0.08414,-0.19632 0.248405,-0.35258 0.112182,-0.10684 0.263095,-0.16159 0.150912,-0.0548 0.32987,-0.0548 0.104169,0 0.207003,0.024 0.102834,0.0227 0.209675,0.0695 z"
         style="font-style:italic;font-variant:normal;font-weight:normal;font-stretch:normal;font-size:2.73511863px;font-family:sans-serif;-inkscape-font-specification:'sans-serif Italic';fill:#f9f85e;fill-opacity:1;stroke-width:0.25641736px"
         id="path4559" />
      <path
         d="m 38.384495,289.38437 q 0.004,-0.0214 0.0053,-0.0441 0.0027,-0.0227 0.0027,-0.0454 0,-0.16293 -0.09616,-0.25775 -0.09482,-0.0948 -0.259089,-0.0948 -0.182964,0 -0.323192,0.11619 -0.140229,0.11485 -0.212346,0.3272 z m 0.213681,0.19232 h -1.143194 q -0.008,0.0507 -0.01068,0.0801 -0.0027,0.0294 -0.0027,0.0507 0,0.18563 0.113518,0.28713 0.114854,0.1015 0.323193,0.1015 0.160261,0 0.30316,-0.0361 0.142899,-0.0361 0.265766,-0.10551 l -0.04674,0.24307 q -0.132215,0.0534 -0.273779,0.0801 -0.140228,0.0267 -0.285798,0.0267 -0.311173,0 -0.479447,-0.14824 -0.166939,-0.14958 -0.166939,-0.42336 0,-0.23371 0.0828,-0.43404 0.08414,-0.20166 0.245733,-0.35925 0.10417,-0.0988 0.247069,-0.15225 0.144235,-0.0534 0.305831,-0.0534 0.253746,0 0.403323,0.15225 0.150913,0.15225 0.150913,0.40866 0,0.0614 -0.008,0.13222 -0.008,0.0694 -0.02404,0.14958 z"
         style="font-style:italic;font-variant:normal;font-weight:normal;font-stretch:normal;font-size:2.73511863px;font-family:sans-serif;-inkscape-font-specification:'sans-serif Italic';fill:#f9f85e;fill-opacity:1;stroke-width:0.25641736px"
         id="path4561" />
      <path
         d="m 40.045866,288.2719 h 0.271108 l -0.235049,1.2113 q -0.01469,0.0815 -0.02137,0.13489 -0.0053,0.0521 -0.0053,0.0922 0,0.1843 0.102834,0.28045 0.102834,0.0948 0.301824,0.0948 0.257753,0 0.400653,-0.14156 0.144234,-0.14156 0.205668,-0.46075 l 0.235049,-1.2113 h 0.271108 l -0.240391,1.24469 q -0.07879,0.40332 -0.299154,0.59563 -0.220359,0.19232 -0.603649,0.19232 -0.299154,0 -0.474105,-0.14958 -0.173616,-0.15091 -0.173616,-0.40866 0,-0.0468 0.0067,-0.10417 0.0067,-0.0588 0.02003,-0.12554 z"
         style="font-style:italic;font-variant:normal;font-weight:normal;font-stretch:normal;font-size:2.73511863px;font-family:sans-serif;-inkscape-font-specification:'sans-serif Italic';fill:#f9f85e;fill-opacity:1;stroke-width:0.25641736px"
         id="path4563" />
      <path
         d="m 42.126585,288.18776 h 0.245734 l -0.404659,2.07805 h -0.245733 z"
         style="font-style:italic;font-variant:normal;font-weight:normal;font-stretch:normal;font-size:2.73511863px;font-family:sans-serif;-inkscape-font-specification:'sans-serif Italic';fill:#f9f85e;fill-opacity:1;stroke-width:0.25641736px"
         id="path4565" />
      <path
         d="m 44.840336,289.36301 -0.174952,0.9028 h -0.245733 l 0.17228,-0.89479 q 0.01068,-0.0574 0.01603,-0.0988 0.0053,-0.0414 0.0053,-0.0708 0,-0.1202 -0.06677,-0.18697 -0.06677,-0.0668 -0.186971,-0.0668 -0.178958,0 -0.319186,0.13489 -0.140228,0.13355 -0.181629,0.34857 l -0.164268,0.83469 h -0.245733 l 0.174952,-0.89479 q 0.01068,-0.0494 0.01603,-0.0908 0.0053,-0.0427 0.0053,-0.0761 0,-0.12153 -0.06678,-0.18831 -0.06677,-0.0681 -0.1843,-0.0681 -0.181629,0 -0.321857,0.13489 -0.140228,0.13355 -0.181629,0.34857 l -0.164267,0.83469 h -0.245734 l 0.292476,-1.49577 h 0.245734 l -0.04674,0.23238 q 0.100163,-0.13088 0.233714,-0.19899 0.134886,-0.0695 0.288469,-0.0695 0.162932,0 0.267102,0.0855 0.105505,0.0855 0.126873,0.23772 0.112183,-0.15759 0.259088,-0.24039 0.148242,-0.0828 0.312509,-0.0828 0.192313,0 0.296483,0.11085 0.105505,0.11085 0.105505,0.31384 0,0.0441 -0.0053,0.0975 -0.0053,0.0521 -0.01603,0.10685 z"
         style="font-style:italic;font-variant:normal;font-weight:normal;font-stretch:normal;font-size:2.73511863px;font-family:sans-serif;-inkscape-font-specification:'sans-serif Italic';fill:#f9f85e;fill-opacity:1;stroke-width:0.25641736px"
         id="path4567" />
      <path
         d="m 47.236235,289.38437 q 0.004,-0.0214 0.0053,-0.0441 0.0027,-0.0227 0.0027,-0.0454 0,-0.16293 -0.09616,-0.25775 -0.09482,-0.0948 -0.259089,-0.0948 -0.182964,0 -0.323192,0.11619 -0.140229,0.11485 -0.212346,0.3272 z m 0.213681,0.19232 h -1.143194 q -0.008,0.0507 -0.01068,0.0801 -0.0027,0.0294 -0.0027,0.0507 0,0.18563 0.113518,0.28713 0.114854,0.1015 0.323193,0.1015 0.160261,0 0.30316,-0.0361 0.142899,-0.0361 0.265766,-0.10551 l -0.04674,0.24307 q -0.132215,0.0534 -0.273779,0.0801 -0.140228,0.0267 -0.285798,0.0267 -0.311173,0 -0.479447,-0.14824 -0.166939,-0.14958 -0.166939,-0.42336 0,-0.23371 0.0828,-0.43404 0.08414,-0.20166 0.245733,-0.35925 0.10417,-0.0988 0.247069,-0.15225 0.144235,-0.0534 0.305831,-0.0534 0.253746,0 0.403323,0.15225 0.150912,0.15225 0.150912,0.40866 0,0.0614 -0.008,0.13222 -0.008,0.0694 -0.02404,0.14958 z"
         style="font-style:italic;font-variant:normal;font-weight:normal;font-stretch:normal;font-size:2.73511863px;font-family:sans-serif;-inkscape-font-specification:'sans-serif Italic';fill:#f9f85e;fill-opacity:1;stroke-width:0.25641736px"
         id="path4569" />
      <path
         d="m 47.670352,289.92659 h 0.281792 l -0.06544,0.33922 h -0.281792 z"
         style="font-style:italic;font-variant:normal;font-weight:normal;font-stretch:normal;font-size:2.73511863px;font-family:sans-serif;-inkscape-font-specification:'sans-serif Italic';fill:#f9f85e;fill-opacity:1;stroke-width:0.25641736px"
         id="path4571" />
      <path
         d="M 48.565293,290.26581 48.21539,288.2719 h 0.26443 l 0.289805,1.71479 0.968243,-1.71479 h 0.293811 l -1.152542,1.99391 z"
         style="font-style:italic;font-variant:normal;font-weight:normal;font-stretch:normal;font-size:2.73511863px;font-family:sans-serif;-inkscape-font-specification:'sans-serif Italic';fill:#f9f85e;fill-opacity:1;stroke-width:0.25641736px"
         id="path4573" />
      <path
         d="m 49.780605,289.92659 h 0.281792 l -0.06544,0.33922 h -0.281792 z"
         style="font-style:italic;font-variant:normal;font-weight:normal;font-stretch:normal;font-size:2.73511863px;font-family:sans-serif;-inkscape-font-specification:'sans-serif Italic';fill:#f9f85e;fill-opacity:1;stroke-width:0.25641736px"
         id="path4575" />
    </g>
  </g>
</svg>
