<?xml version="1.0" encoding="UTF-8" standalone="no"?>
<!-- Created with Inkscape (http://www.inkscape.org/) -->

<svg
   xmlns:dc="http://purl.org/dc/elements/1.1/"
   xmlns:cc="http://creativecommons.org/ns#"
   xmlns:rdf="http://www.w3.org/1999/02/22-rdf-syntax-ns#"
   xmlns:svg="http://www.w3.org/2000/svg"
   xmlns="http://www.w3.org/2000/svg"
   xmlns:xlink="http://www.w3.org/1999/xlink"
   xmlns:sodipodi="http://sodipodi.sourceforge.net/DTD/sodipodi-0.dtd"
   xmlns:inkscape="http://www.inkscape.org/namespaces/inkscape"
   width="80mm"
   height="58mm"
   viewBox="0 0 80 58"
   version="1.1"
   id="svg4695"
   inkscape:version="0.92.0 r15299"
   sodipodi:docname="sticker_5.svg">
  <defs
     id="defs4689">
    <color-profile
       name="Artifex-PS-CMYK-Profile"
       xlink:href="/usr/share/color/icc/ghostscript/ps_cmyk.icc"
       id="color-profile3" />
  </defs>
  <sodipodi:namedview
     id="base"
     pagecolor="#ffffff"
     bordercolor="#666666"
     borderopacity="1.0"
     inkscape:pageopacity="0.0"
     inkscape:pageshadow="2"
     inkscape:zoom="2.8284271"
     inkscape:cx="150.55862"
     inkscape:cy="111.18104"
     inkscape:document-units="mm"
     inkscape:current-layer="layer1"
     showgrid="false"
     inkscape:window-width="1920"
     inkscape:window-height="1023"
     inkscape:window-x="0"
     inkscape:window-y="31"
     inkscape:window-maximized="1"
     showguides="false"
     inkscape:guide-bbox="true"
     inkscape:measure-start="0,0"
     inkscape:measure-end="0,0">
    <sodipodi:guide
       position="-2.1233857,54.999999"
       orientation="0,1"
       id="guide13474"
       inkscape:locked="false"
       inkscape:label=""
       inkscape:color="rgb(0,0,255)" />
    <sodipodi:guide
       position="-9.3428971,2.9999999"
       orientation="0,1"
       id="guide13476"
       inkscape:locked="false"
       inkscape:label=""
       inkscape:color="rgb(0,0,255)" />
    <sodipodi:guide
       position="-2.229555,11.784791"
       orientation="0,1"
       id="guide13478"
       inkscape:locked="false" />
    <sodipodi:guide
       position="2.9999999,64.763265"
       orientation="1,0"
       id="guide13480"
       inkscape:locked="false"
       inkscape:label=""
       inkscape:color="rgb(0,0,255)" />
    <sodipodi:guide
       position="76.999999,57.331415"
       orientation="1,0"
       id="guide13482"
       inkscape:locked="false"
       inkscape:label=""
       inkscape:color="rgb(0,0,255)" />
  </sodipodi:namedview>
  <metadata
     id="metadata4692">
    <rdf:RDF>
      <cc:Work
         rdf:about="">
        <dc:format>image/svg+xml</dc:format>
        <dc:type
           rdf:resource="http://purl.org/dc/dcmitype/StillImage" />
        <dc:title />
      </cc:Work>
    </rdf:RDF>
  </metadata>
  <g
     inkscape:label="Layer 1"
     inkscape:groupmode="layer"
     id="layer1"
     transform="translate(0,-239)">
    <path
       transform="scale(1,-1)"
       style="fill:#241c1c;fill-opacity:1;stroke:none;stroke-width:5.31752777;stroke-miterlimit:4;stroke-dasharray:none;stroke-opacity:1"
       d="m 0,-297 h 80 v 58 H 0 Z"
       id="rect5240" />
    <g
       id="g13922"
       transform="matrix(1.2740408,0,0,1.2740408,-10.96163,-78.839579)">
      <g
         aria-label="FRRM"
         transform="scale(0.94589026,1.0572051)"
         style="font-style:italic;font-variant:normal;font-weight:bold;font-stretch:normal;font-size:17.21329308px;line-height:2.55844736px;font-family:sans-serif;-inkscape-font-specification:'sans-serif Bold Italic';letter-spacing:0px;word-spacing:0px;fill:#4ccec3;fill-opacity:1;stroke:none;stroke-width:1.58074129;stroke-linecap:butt;stroke-linejoin:miter;stroke-miterlimit:4;stroke-dasharray:none;stroke-opacity:1"
         id="text4491-3-0-4">
        <path
           d="m 18.028995,259.56424 h 8.724316 l -0.479081,2.44583 h -5.488418 l -0.453866,2.33657 h 5.169031 l -0.487486,2.44583 h -5.160626 l -1.033806,5.32032 h -3.235898 z"
           style="font-style:italic;font-variant:normal;font-weight:bold;font-stretch:normal;font-size:17.21329308px;font-family:sans-serif;-inkscape-font-specification:'sans-serif Bold Italic';fill:#4ccec3;fill-opacity:1;stroke-width:1.58074129"
           id="path4504"
           inkscape:connector-curvature="0" />
        <path
           d="m 32.347847,265.1283 q 1.101046,0 1.664176,-0.5127 0.571535,-0.5127 0.571535,-1.50449 0,-0.62196 -0.395032,-0.90773 -0.386626,-0.29417 -1.227119,-0.29417 h -1.336384 l -0.638774,3.21909 z m -1.79025,2.23571 -0.932947,4.74878 h -3.235897 l 2.445834,-12.54855 h 4.782404 q 2.067612,0 3.135038,0.77325 1.067426,0.77325 1.067426,2.27773 0,1.5213 -0.840493,2.50467 -0.840492,0.98338 -2.277735,1.12626 0.655584,0.13448 1.092641,0.6724 0.437056,0.52951 0.764848,1.63055 l 1.067426,3.56369 h -3.219088 l -0.941352,-3.11823 q -0.285767,-0.93294 -0.697609,-1.27754 -0.403436,-0.35301 -1.17669,-0.35301 z"
           style="font-style:italic;font-variant:normal;font-weight:bold;font-stretch:normal;font-size:17.21329308px;font-family:sans-serif;-inkscape-font-specification:'sans-serif Bold Italic';fill:#4ccec3;fill-opacity:1;stroke-width:1.58074129"
           id="path4506"
           inkscape:connector-curvature="0" />
        <path
           d="m 45.044695,265.1283 q 1.101045,0 1.664176,-0.5127 0.571535,-0.5127 0.571535,-1.50449 0,-0.62196 -0.395032,-0.90773 -0.386627,-0.29417 -1.227119,-0.29417 h -1.336384 l -0.638775,3.21909 z m -1.79025,2.23571 -0.932947,4.74878 h -3.235897 l 2.445834,-12.54855 h 4.782404 q 2.067612,0 3.135038,0.77325 1.067426,0.77325 1.067426,2.27773 0,1.5213 -0.840493,2.50467 -0.840492,0.98338 -2.277735,1.12626 0.655584,0.13448 1.09264,0.6724 0.437057,0.52951 0.764849,1.63055 l 1.067426,3.56369 h -3.219088 l -0.941352,-3.11823 q -0.285767,-0.93294 -0.697609,-1.27754 -0.403436,-0.35301 -1.17669,-0.35301 z"
           style="font-style:italic;font-variant:normal;font-weight:bold;font-stretch:normal;font-size:17.21329308px;font-family:sans-serif;-inkscape-font-specification:'sans-serif Bold Italic';fill:#4ccec3;fill-opacity:1;stroke-width:1.58074129"
           id="path4508"
           inkscape:connector-curvature="0" />
        <path
           d="m 54.365612,259.56424 h 3.975531 l 1.613746,6.6651 4.236084,-6.6651 h 4.135225 l -2.445834,12.54855 h -3.067799 l 1.790249,-9.26223 -4.353752,6.85002 h -1.739821 l -1.731415,-6.85002 -1.790249,9.26223 h -3.067799 z"
           style="font-style:italic;font-variant:normal;font-weight:bold;font-stretch:normal;font-size:17.21329308px;font-family:sans-serif;-inkscape-font-specification:'sans-serif Bold Italic';fill:#4ccec3;fill-opacity:1;stroke-width:1.58074129"
           id="path4510"
           inkscape:connector-curvature="0" />
      </g>
      <g
         aria-label="FRRM"
         transform="scale(0.94589026,1.0572051)"
         style="font-style:italic;font-variant:normal;font-weight:bold;font-stretch:normal;font-size:17.21329308px;line-height:2.55844736px;font-family:sans-serif;-inkscape-font-specification:'sans-serif Bold Italic';letter-spacing:0px;word-spacing:0px;fill:#f9f85e;fill-opacity:1;stroke:none;stroke-width:1.58074129;stroke-linecap:butt;stroke-linejoin:miter;stroke-miterlimit:4;stroke-dasharray:none;stroke-opacity:1"
         id="text4491-3-0-4-4">
        <path
           d="m 18.696041,259.06521 h 8.724315 l -0.47908,2.44584 h -5.488419 l -0.453866,2.33657 h 5.169031 l -0.487486,2.44583 H 20.51991 l -1.033806,5.32032 h -3.235897 z"
           style="font-style:italic;font-variant:normal;font-weight:bold;font-stretch:normal;font-size:17.21329308px;font-family:sans-serif;-inkscape-font-specification:'sans-serif Bold Italic';fill:#f9f85e;fill-opacity:1;stroke-width:1.58074129"
           id="path4513"
           inkscape:connector-curvature="0" />
        <path
           d="m 33.014893,264.62927 q 1.101045,0 1.664175,-0.5127 0.571535,-0.5127 0.571535,-1.50448 0,-0.62196 -0.395031,-0.90773 -0.386627,-0.29417 -1.22712,-0.29417 h -1.336383 l -0.638775,3.21908 z m -1.79025,2.23572 -0.932947,4.74878 h -3.235898 l 2.445835,-12.54856 h 4.782404 q 2.067612,0 3.135038,0.77326 1.067426,0.77325 1.067426,2.27773 0,1.52129 -0.840493,2.50467 -0.840493,0.98338 -2.277736,1.12626 0.655585,0.13448 1.092641,0.67239 0.437056,0.52951 0.764849,1.63056 l 1.067425,3.56369 H 35.0741 l -0.941352,-3.11823 q -0.285768,-0.93295 -0.697609,-1.27755 -0.403437,-0.353 -1.17669,-0.353 z"
           style="font-style:italic;font-variant:normal;font-weight:bold;font-stretch:normal;font-size:17.21329308px;font-family:sans-serif;-inkscape-font-specification:'sans-serif Bold Italic';fill:#f9f85e;fill-opacity:1;stroke-width:1.58074129"
           id="path4515"
           inkscape:connector-curvature="0" />
        <path
           d="m 45.71174,264.62927 q 1.101046,0 1.664176,-0.5127 0.571535,-0.5127 0.571535,-1.50448 0,-0.62196 -0.395031,-0.90773 -0.386627,-0.29417 -1.22712,-0.29417 h -1.336383 l -0.638775,3.21908 z m -1.790249,2.23572 -0.932947,4.74878 h -3.235898 l 2.445834,-12.54856 h 4.782405 q 2.067612,0 3.135038,0.77326 1.067426,0.77325 1.067426,2.27773 0,1.52129 -0.840493,2.50467 -0.840493,0.98338 -2.277736,1.12626 0.655585,0.13448 1.092641,0.67239 0.437056,0.52951 0.764849,1.63056 l 1.067425,3.56369 h -3.219087 l -0.941352,-3.11823 q -0.285768,-0.93295 -0.697609,-1.27755 -0.403437,-0.353 -1.17669,-0.353 z"
           style="font-style:italic;font-variant:normal;font-weight:bold;font-stretch:normal;font-size:17.21329308px;font-family:sans-serif;-inkscape-font-specification:'sans-serif Bold Italic';fill:#f9f85e;fill-opacity:1;stroke-width:1.58074129"
           id="path4517"
           inkscape:connector-curvature="0" />
        <path
           d="m 55.032657,259.06521 h 3.975532 l 1.613746,6.66511 4.236084,-6.66511 h 4.135224 l -2.445834,12.54856 H 63.47961 l 1.79025,-9.26223 -4.353753,6.85002 h -1.73982 l -1.731415,-6.85002 -1.79025,9.26223 h -3.067799 z"
           style="font-style:italic;font-variant:normal;font-weight:bold;font-stretch:normal;font-size:17.21329308px;font-family:sans-serif;-inkscape-font-specification:'sans-serif Bold Italic';fill:#f9f85e;fill-opacity:1;stroke-width:1.58074129"
           id="path4519"
           inkscape:connector-curvature="0" />
      </g>
      <g
         aria-label="Freiraum Hackerspace Ulm e.V."
         style="font-style:normal;font-variant:normal;font-weight:normal;font-stretch:normal;font-size:3.18151855px;line-height:7.45668364px;font-family:sans-serif;-inkscape-font-specification:sans-serif;letter-spacing:0px;word-spacing:0px;fill:#f9f85e;fill-opacity:1;stroke:none;stroke-width:0.29826736px;stroke-linecap:butt;stroke-linejoin:miter;stroke-opacity:1"
         id="text9407-4-9">
        <path
           d="m 15.284477,288.9617 h 1.329775 l -0.05127,0.26409 h -1.017526 l -0.133599,0.68353 h 0.919657 l -0.05126,0.26409 h -0.919658 l -0.215933,1.10763 h -0.312249 z"
           style="font-style:italic;font-variant:normal;font-weight:normal;font-stretch:normal;font-size:3.18151855px;font-family:sans-serif;-inkscape-font-specification:'sans-serif Italic';fill:#f9f85e;fill-opacity:1;stroke-width:0.29826736px"
           id="path4522"
           inkscape:connector-curvature="0" />
        <path
           d="m 17.998399,289.80523 q -0.0435,-0.0233 -0.09942,-0.0357 -0.05593,-0.0124 -0.119618,-0.0124 -0.228361,0 -0.399243,0.17399 -0.170883,0.17243 -0.226808,0.46293 l -0.175543,0.88704 h -0.285839 l 0.340211,-1.7399 h 0.28584 l -0.05437,0.27031 q 0.113404,-0.15069 0.270305,-0.23147 0.158454,-0.0808 0.337104,-0.0808 0.0466,0 0.09166,0.006 0.04505,0.005 0.0901,0.0171 z"
           style="font-style:italic;font-variant:normal;font-weight:normal;font-stretch:normal;font-size:3.18151855px;font-family:sans-serif;-inkscape-font-specification:'sans-serif Italic';fill:#f9f85e;fill-opacity:1;stroke-width:0.29826736px"
           id="path4524"
           inkscape:connector-curvature="0" />
        <path
           d="m 19.421383,290.25574 q 0.0047,-0.0249 0.0062,-0.0513 0.0031,-0.0264 0.0031,-0.0528 0,-0.18952 -0.111851,-0.29982 -0.110296,-0.1103 -0.301374,-0.1103 -0.212826,0 -0.375941,0.13515 -0.163115,0.1336 -0.247003,0.38061 z m 0.248556,0.2237 h -1.329775 q -0.0093,0.059 -0.01243,0.0932 -0.0031,0.0342 -0.0031,0.059 0,0.21594 0.132045,0.334 0.133599,0.11806 0.375941,0.11806 0.186418,0 0.35264,-0.0419 0.166221,-0.0419 0.309141,-0.12272 l -0.05437,0.28273 q -0.153795,0.0621 -0.318463,0.0932 -0.163115,0.0311 -0.332444,0.0311 -0.36196,0 -0.557698,-0.17244 -0.194184,-0.17399 -0.194184,-0.49245 0,-0.27186 0.09632,-0.50488 0.09787,-0.23457 0.28584,-0.41789 0.121171,-0.11495 0.287393,-0.17709 0.167775,-0.0621 0.355746,-0.0621 0.29516,0 0.46915,0.1771 0.175542,0.17709 0.175542,0.47536 0,0.0715 -0.0093,0.15379 -0.0093,0.0808 -0.02796,0.17399 z"
           style="font-style:italic;font-variant:normal;font-weight:normal;font-stretch:normal;font-size:3.18151855px;font-family:sans-serif;-inkscape-font-specification:'sans-serif Italic';fill:#f9f85e;fill-opacity:1;stroke-width:0.29826736px"
           id="path4526"
           inkscape:connector-curvature="0" />
        <path
           d="m 20.431142,288.86383 h 0.28584 l -0.06991,0.36196 h -0.28584 z m -0.130492,0.67731 h 0.28584 l -0.340211,1.7399 h -0.28584 z"
           style="font-style:italic;font-variant:normal;font-weight:normal;font-stretch:normal;font-size:3.18151855px;font-family:sans-serif;-inkscape-font-specification:'sans-serif Italic';fill:#f9f85e;fill-opacity:1;stroke-width:0.29826736px"
           id="path4528"
           inkscape:connector-curvature="0" />
        <path
           d="m 22.149286,289.80523 q -0.0435,-0.0233 -0.09942,-0.0357 -0.05592,-0.0124 -0.119618,-0.0124 -0.228361,0 -0.399243,0.17399 -0.170883,0.17243 -0.226808,0.46293 l -0.175542,0.88704 h -0.28584 l 0.340211,-1.7399 h 0.28584 l -0.05437,0.27031 q 0.113404,-0.15069 0.270305,-0.23147 0.158454,-0.0808 0.337104,-0.0808 0.0466,0 0.09165,0.006 0.04505,0.005 0.0901,0.0171 z"
           style="font-style:italic;font-variant:normal;font-weight:normal;font-stretch:normal;font-size:3.18151855px;font-family:sans-serif;-inkscape-font-specification:'sans-serif Italic';fill:#f9f85e;fill-opacity:1;stroke-width:0.29826736px"
           id="path4530"
           inkscape:connector-curvature="0" />
        <path
           d="m 23.75092,290.28837 -0.194184,0.99267 h -0.28584 l 0.05282,-0.26409 q -0.125831,0.15534 -0.287393,0.23302 -0.160008,0.0761 -0.357299,0.0761 -0.222147,0 -0.365067,-0.13516 -0.141366,-0.1367 -0.141366,-0.34953 0,-0.30448 0.242342,-0.48157 0.243896,-0.1771 0.671101,-0.1771 h 0.39769 l 0.01553,-0.0761 q 0.0031,-0.0124 0.0047,-0.0264 0.0016,-0.0155 0.0016,-0.0466 0,-0.13826 -0.113404,-0.21438 -0.11185,-0.0777 -0.315355,-0.0777 -0.139813,0 -0.287393,0.0357 -0.146027,0.0357 -0.301375,0.10719 l 0.04971,-0.26409 q 0.161562,-0.0606 0.315356,-0.0901 0.155348,-0.0311 0.299821,-0.0311 0.307588,0 0.467596,0.1336 0.161562,0.1336 0.161562,0.38837 0,0.0513 -0.0078,0.12117 -0.0078,0.0684 -0.0233,0.14603 z m -0.309142,0.11806 h -0.285839 q -0.351086,0 -0.520415,0.0948 -0.167775,0.0932 -0.167775,0.2905 0,0.13671 0.08544,0.21438 0.08699,0.0777 0.239235,0.0777 0.233022,0 0.407011,-0.16622 0.173989,-0.16777 0.229915,-0.4474 z"
           style="font-style:italic;font-variant:normal;font-weight:normal;font-stretch:normal;font-size:3.18151855px;font-family:sans-serif;-inkscape-font-specification:'sans-serif Italic';fill:#f9f85e;fill-opacity:1;stroke-width:0.29826736px"
           id="path4532"
           inkscape:connector-curvature="0" />
        <path
           d="m 24.206088,290.59129 0.203506,-1.05015 h 0.287393 l -0.203505,1.03928 q -0.01553,0.0761 -0.0233,0.13049 -0.0062,0.0544 -0.0062,0.0901 0,0.13205 0.08078,0.20506 0.08078,0.0715 0.228361,0.0715 0.229915,0 0.39769,-0.15535 0.167775,-0.15534 0.21904,-0.41788 l 0.191078,-0.96316 h 0.285839 l -0.337104,1.7399 h -0.28584 l 0.05748,-0.27342 q -0.121171,0.15225 -0.288947,0.23613 -0.166221,0.0823 -0.354192,0.0823 -0.228361,0 -0.355746,-0.12428 -0.127385,-0.12583 -0.127385,-0.34953 0,-0.0466 0.0078,-0.11651 0.0078,-0.0699 0.0233,-0.14448 z"
           style="font-style:italic;font-variant:normal;font-weight:normal;font-stretch:normal;font-size:3.18151855px;font-family:sans-serif;-inkscape-font-specification:'sans-serif Italic';fill:#f9f85e;fill-opacity:1;stroke-width:0.29826736px"
           id="path4534"
           inkscape:connector-curvature="0" />
        <path
           d="m 28.869623,290.23089 -0.203505,1.05015 h -0.28584 l 0.200399,-1.04083 q 0.01243,-0.0668 0.01864,-0.11496 0.0062,-0.0482 0.0062,-0.0823 0,-0.13982 -0.07767,-0.21749 -0.07767,-0.0777 -0.217487,-0.0777 -0.208166,0 -0.371281,0.1569 -0.163115,0.15534 -0.211273,0.40545 l -0.191077,0.97093 h -0.28584 l 0.203506,-1.04083 q 0.01243,-0.0575 0.01864,-0.10564 0.0062,-0.0497 0.0062,-0.0885 0,-0.14136 -0.07767,-0.21904 -0.07767,-0.0792 -0.21438,-0.0792 -0.211273,0 -0.374388,0.1569 -0.163115,0.15534 -0.211273,0.40545 l -0.191077,0.97093 h -0.28584 l 0.340212,-1.7399 h 0.285839 l -0.05437,0.27031 q 0.11651,-0.15224 0.271858,-0.23147 0.156901,-0.0808 0.335551,-0.0808 0.189524,0 0.310695,0.0994 0.122724,0.0994 0.14758,0.27652 0.130492,-0.18331 0.301374,-0.27962 0.172436,-0.0963 0.363514,-0.0963 0.2237,0 0.344871,0.12894 0.122725,0.12894 0.122725,0.36506 0,0.0513 -0.0062,0.11341 -0.0062,0.0606 -0.01864,0.12428 z"
           style="font-style:italic;font-variant:normal;font-weight:normal;font-stretch:normal;font-size:3.18151855px;font-family:sans-serif;-inkscape-font-specification:'sans-serif Italic';fill:#f9f85e;fill-opacity:1;stroke-width:0.29826736px"
           id="path4536"
           inkscape:connector-curvature="0" />
        <path
           d="m 30.663887,288.9617 h 0.315356 l -0.184864,0.95072 h 1.138698 l 0.184864,-0.95072 h 0.315355 l -0.452061,2.31934 h -0.315356 l 0.215933,-1.10452 h -1.138697 l -0.215933,1.10452 h -0.315356 z"
           style="font-style:italic;font-variant:normal;font-weight:normal;font-stretch:normal;font-size:3.18151855px;font-family:sans-serif;-inkscape-font-specification:'sans-serif Italic';fill:#f9f85e;fill-opacity:1;stroke-width:0.29826736px"
           id="path4538"
           inkscape:connector-curvature="0" />
        <path
           d="m 34.22756,290.28837 -0.194184,0.99267 h -0.28584 l 0.05282,-0.26409 q -0.125831,0.15534 -0.287393,0.23302 -0.160008,0.0761 -0.357299,0.0761 -0.222147,0 -0.365067,-0.13516 -0.141366,-0.1367 -0.141366,-0.34953 0,-0.30448 0.242342,-0.48157 0.243896,-0.1771 0.671102,-0.1771 h 0.397689 l 0.01553,-0.0761 q 0.0031,-0.0124 0.0047,-0.0264 0.0016,-0.0155 0.0016,-0.0466 0,-0.13826 -0.113404,-0.21438 -0.11185,-0.0777 -0.315355,-0.0777 -0.139813,0 -0.287393,0.0357 -0.146027,0.0357 -0.301375,0.10719 l 0.04971,-0.26409 q 0.161561,-0.0606 0.315355,-0.0901 0.155348,-0.0311 0.299821,-0.0311 0.307588,0 0.467596,0.1336 0.161562,0.1336 0.161562,0.38837 0,0.0513 -0.0078,0.12117 -0.0078,0.0684 -0.0233,0.14603 z m -0.309141,0.11806 h -0.28584 q -0.351086,0 -0.520414,0.0948 -0.167776,0.0932 -0.167776,0.2905 0,0.13671 0.08544,0.21438 0.087,0.0777 0.239236,0.0777 0.233021,0 0.40701,-0.16622 0.17399,-0.16777 0.229915,-0.4474 z"
           style="font-style:italic;font-variant:normal;font-weight:normal;font-stretch:normal;font-size:3.18151855px;font-family:sans-serif;-inkscape-font-specification:'sans-serif Italic';fill:#f9f85e;fill-opacity:1;stroke-width:0.29826736px"
           id="path4540"
           inkscape:connector-curvature="0" />
        <path
           d="m 36.175619,289.60794 -0.05748,0.28274 q -0.10253,-0.0746 -0.21904,-0.11185 -0.114957,-0.0373 -0.239236,-0.0373 -0.136705,0 -0.260983,0.0482 -0.122725,0.0482 -0.206613,0.13671 -0.133599,0.13515 -0.206612,0.3169 -0.07301,0.18176 -0.07301,0.37595 0,0.23457 0.11651,0.34953 0.118064,0.11495 0.3573,0.11495 0.118064,0 0.250109,-0.0357 0.133599,-0.0357 0.278073,-0.10718 l -0.05437,0.28273 q -0.124278,0.0513 -0.256324,0.0761 -0.130492,0.0264 -0.268751,0.0264 -0.346425,0 -0.532842,-0.17244 -0.186417,-0.17399 -0.186417,-0.49556 0,-0.2703 0.09632,-0.49711 0.09787,-0.22836 0.288947,-0.41012 0.130492,-0.12428 0.306034,-0.18797 0.175543,-0.0637 0.383709,-0.0637 0.121171,0 0.240789,0.028 0.119617,0.0264 0.243895,0.0808 z"
           style="font-style:italic;font-variant:normal;font-weight:normal;font-stretch:normal;font-size:3.18151855px;font-family:sans-serif;-inkscape-font-specification:'sans-serif Italic';fill:#f9f85e;fill-opacity:1;stroke-width:0.29826736px"
           id="path4542"
           inkscape:connector-curvature="0" />
        <path
           d="m 36.804778,288.86383 h 0.285839 l -0.273412,1.409 0.980244,-0.73169 h 0.37128 l -1.093647,0.83267 0.798487,0.90723 h -0.346425 l -0.742562,-0.84975 -0.164668,0.84975 h -0.28584 z"
           style="font-style:italic;font-variant:normal;font-weight:normal;font-stretch:normal;font-size:3.18151855px;font-family:sans-serif;-inkscape-font-specification:'sans-serif Italic';fill:#f9f85e;fill-opacity:1;stroke-width:0.29826736px"
           id="path4544"
           inkscape:connector-curvature="0" />
        <path
           d="m 39.597928,290.25574 q 0.0047,-0.0249 0.0062,-0.0513 0.0031,-0.0264 0.0031,-0.0528 0,-0.18952 -0.11185,-0.29982 -0.110297,-0.1103 -0.301374,-0.1103 -0.212826,0 -0.375941,0.13515 -0.163115,0.1336 -0.247003,0.38061 z m 0.248556,0.2237 h -1.329776 q -0.0093,0.059 -0.01243,0.0932 -0.0031,0.0342 -0.0031,0.059 0,0.21594 0.132045,0.334 0.133599,0.11806 0.375941,0.11806 0.186417,0 0.352639,-0.0419 0.166222,-0.0419 0.309142,-0.12272 l -0.05437,0.28273 q -0.153794,0.0621 -0.318462,0.0932 -0.163115,0.0311 -0.332444,0.0311 -0.36196,0 -0.557698,-0.17244 -0.194184,-0.17399 -0.194184,-0.49245 0,-0.27186 0.09632,-0.50488 0.09787,-0.23457 0.28584,-0.41789 0.121171,-0.11495 0.287393,-0.17709 0.167775,-0.0621 0.355746,-0.0621 0.29516,0 0.469149,0.1771 0.175543,0.17709 0.175543,0.47536 0,0.0715 -0.0093,0.15379 -0.0093,0.0808 -0.02796,0.17399 z"
           style="font-style:italic;font-variant:normal;font-weight:normal;font-stretch:normal;font-size:3.18151855px;font-family:sans-serif;-inkscape-font-specification:'sans-serif Italic';fill:#f9f85e;fill-opacity:1;stroke-width:0.29826736px"
           id="path4546"
           inkscape:connector-curvature="0" />
        <path
           d="m 41.443458,289.80523 q -0.0435,-0.0233 -0.09942,-0.0357 -0.05592,-0.0124 -0.119618,-0.0124 -0.228361,0 -0.399243,0.17399 -0.170882,0.17243 -0.226807,0.46293 l -0.175543,0.88704 h -0.28584 l 0.340212,-1.7399 h 0.285839 l -0.05437,0.27031 q 0.113404,-0.15069 0.270305,-0.23147 0.158455,-0.0808 0.337105,-0.0808 0.0466,0 0.09165,0.006 0.04505,0.005 0.0901,0.0171 z"
           style="font-style:italic;font-variant:normal;font-weight:normal;font-stretch:normal;font-size:3.18151855px;font-family:sans-serif;-inkscape-font-specification:'sans-serif Italic';fill:#f9f85e;fill-opacity:1;stroke-width:0.29826736px"
           id="path4548"
           inkscape:connector-curvature="0" />
        <path
           d="m 42.927026,289.59241 -0.05437,0.2703 q -0.113404,-0.0621 -0.239235,-0.0932 -0.125832,-0.0311 -0.259431,-0.0311 -0.225254,0 -0.355746,0.0777 -0.128938,0.0761 -0.128938,0.20816 0,0.1538 0.301374,0.23613 0.0233,0.006 0.03418,0.009 l 0.09166,0.028 q 0.285839,0.0792 0.380601,0.16622 0.09632,0.087 0.09632,0.23768 0,0.27652 -0.220594,0.45051 -0.21904,0.17399 -0.574786,0.17399 -0.138259,0 -0.2905,-0.0264 -0.15224,-0.0264 -0.335551,-0.0823 l 0.05593,-0.29516 q 0.156901,0.0808 0.309141,0.12273 0.152241,0.0419 0.292054,0.0419 0.209719,0 0.340211,-0.0901 0.132045,-0.0901 0.132045,-0.22836 0,-0.14913 -0.344871,-0.24079 l -0.02952,-0.008 -0.09787,-0.0249 q -0.217487,-0.0575 -0.318463,-0.15069 -0.100976,-0.0948 -0.100976,-0.24079 0,-0.27807 0.208166,-0.44119 0.209719,-0.16311 0.568572,-0.16311 0.141366,0 0.274965,0.0233 0.135153,0.0233 0.265645,0.0699 z"
           style="font-style:italic;font-variant:normal;font-weight:normal;font-stretch:normal;font-size:3.18151855px;font-family:sans-serif;-inkscape-font-specification:'sans-serif Italic';fill:#f9f85e;fill-opacity:1;stroke-width:0.29826736px"
           id="path4550"
           inkscape:connector-curvature="0" />
        <path
           d="m 44.573711,290.20914 q 0,-0.22836 -0.09942,-0.34953 -0.09942,-0.12118 -0.285839,-0.12118 -0.127385,0 -0.243896,0.0652 -0.114957,0.0652 -0.205059,0.18952 -0.08855,0.12273 -0.141366,0.29672 -0.05282,0.17399 -0.05282,0.34487 0,0.21749 0.09942,0.33555 0.09942,0.11651 0.282733,0.11651 0.135152,0 0.25011,-0.0637 0.11651,-0.0637 0.198844,-0.18486 0.08855,-0.12739 0.14292,-0.29983 0.05437,-0.17243 0.05437,-0.32933 z m -0.885481,-0.40391 q 0.114957,-0.15068 0.270304,-0.22836 0.156902,-0.0777 0.347979,-0.0777 0.267198,0 0.414778,0.17554 0.14758,0.17399 0.14758,0.48935 0,0.25787 -0.09165,0.49245 -0.09166,0.23302 -0.264091,0.41788 -0.114957,0.12273 -0.25943,0.18797 -0.144473,0.0637 -0.304481,0.0637 -0.184864,0 -0.310696,-0.0761 -0.125831,-0.0777 -0.18797,-0.22992 l -0.17865,0.92277 h -0.285839 l 0.467596,-2.40168 h 0.285839 z"
           style="font-style:italic;font-variant:normal;font-weight:normal;font-stretch:normal;font-size:3.18151855px;font-family:sans-serif;-inkscape-font-specification:'sans-serif Italic';fill:#f9f85e;fill-opacity:1;stroke-width:0.29826736px"
           id="path4552"
           inkscape:connector-curvature="0" />
        <path
           d="m 46.723721,290.28837 -0.194185,0.99267 h -0.285839 l 0.05282,-0.26409 q -0.125832,0.15534 -0.287393,0.23302 -0.160008,0.0761 -0.3573,0.0761 -0.222147,0 -0.365066,-0.13516 -0.141367,-0.1367 -0.141367,-0.34953 0,-0.30448 0.242343,-0.48157 0.243895,-0.1771 0.671101,-0.1771 h 0.39769 l 0.01553,-0.0761 q 0.0031,-0.0124 0.0047,-0.0264 0.0016,-0.0155 0.0016,-0.0466 0,-0.13826 -0.113404,-0.21438 -0.11185,-0.0777 -0.315356,-0.0777 -0.139813,0 -0.287393,0.0357 -0.146026,0.0357 -0.301374,0.10719 l 0.04971,-0.26409 q 0.161562,-0.0606 0.315356,-0.0901 0.155347,-0.0311 0.299821,-0.0311 0.307588,0 0.467596,0.1336 0.161561,0.1336 0.161561,0.38837 0,0.0513 -0.0078,0.12117 -0.0078,0.0684 -0.0233,0.14603 z m -0.309142,0.11806 H 46.12874 q -0.351086,0 -0.520415,0.0948 -0.167775,0.0932 -0.167775,0.2905 0,0.13671 0.08544,0.21438 0.087,0.0777 0.239235,0.0777 0.233022,0 0.407011,-0.16622 0.173989,-0.16777 0.229914,-0.4474 z"
           style="font-style:italic;font-variant:normal;font-weight:normal;font-stretch:normal;font-size:3.18151855px;font-family:sans-serif;-inkscape-font-specification:'sans-serif Italic';fill:#f9f85e;fill-opacity:1;stroke-width:0.29826736px"
           id="path4554"
           inkscape:connector-curvature="0" />
        <path
           d="m 48.67178,289.60794 -0.05748,0.28274 q -0.102529,-0.0746 -0.21904,-0.11185 -0.114957,-0.0373 -0.239235,-0.0373 -0.136706,0 -0.260984,0.0482 -0.122725,0.0482 -0.206612,0.13671 -0.133599,0.13515 -0.206613,0.3169 -0.07301,0.18176 -0.07301,0.37595 0,0.23457 0.116511,0.34953 0.118064,0.11495 0.357299,0.11495 0.118064,0 0.25011,-0.0357 0.133599,-0.0357 0.278072,-0.10718 l -0.05437,0.28273 q -0.124278,0.0513 -0.256323,0.0761 -0.130492,0.0264 -0.268751,0.0264 -0.346426,0 -0.532843,-0.17244 -0.186417,-0.17399 -0.186417,-0.49556 0,-0.2703 0.09632,-0.49711 0.09787,-0.22836 0.288946,-0.41012 0.130492,-0.12428 0.306035,-0.18797 0.175543,-0.0637 0.383709,-0.0637 0.121171,0 0.240788,0.028 0.119618,0.0264 0.243896,0.0808 z"
           style="font-style:italic;font-variant:normal;font-weight:normal;font-stretch:normal;font-size:3.18151855px;font-family:sans-serif;-inkscape-font-specification:'sans-serif Italic';fill:#f9f85e;fill-opacity:1;stroke-width:0.29826736px"
           id="path4556"
           inkscape:connector-curvature="0" />
        <path
           d="m 50.248557,290.25574 q 0.0047,-0.0249 0.0062,-0.0513 0.0031,-0.0264 0.0031,-0.0528 0,-0.18952 -0.11185,-0.29982 -0.110297,-0.1103 -0.301374,-0.1103 -0.212826,0 -0.375941,0.13515 -0.163115,0.1336 -0.247003,0.38061 z m 0.248556,0.2237 h -1.329776 q -0.0093,0.059 -0.01243,0.0932 -0.0031,0.0342 -0.0031,0.059 0,0.21594 0.132045,0.334 0.133599,0.11806 0.375941,0.11806 0.186417,0 0.352639,-0.0419 0.166222,-0.0419 0.309142,-0.12272 l -0.05437,0.28273 q -0.153794,0.0621 -0.318462,0.0932 -0.163115,0.0311 -0.332444,0.0311 -0.36196,0 -0.557698,-0.17244 -0.194184,-0.17399 -0.194184,-0.49245 0,-0.27186 0.09631,-0.50488 0.09787,-0.23457 0.28584,-0.41789 0.121171,-0.11495 0.287393,-0.17709 0.167775,-0.0621 0.355746,-0.0621 0.29516,0 0.469149,0.1771 0.175543,0.17709 0.175543,0.47536 0,0.0715 -0.0093,0.15379 -0.0093,0.0808 -0.02796,0.17399 z"
           style="font-style:italic;font-variant:normal;font-weight:normal;font-stretch:normal;font-size:3.18151855px;font-family:sans-serif;-inkscape-font-specification:'sans-serif Italic';fill:#f9f85e;fill-opacity:1;stroke-width:0.29826736px"
           id="path4558"
           inkscape:connector-curvature="0" />
        <path
           d="m 52.18108,288.9617 h 0.315356 l -0.273412,1.409 q -0.01709,0.0948 -0.02486,0.1569 -0.0062,0.0606 -0.0062,0.10719 0,0.21438 0.119618,0.32623 0.119618,0.1103 0.351086,0.1103 0.29982,0 0.466042,-0.16467 0.167776,-0.16467 0.239236,-0.53595 l 0.273411,-1.409 h 0.315356 l -0.279626,1.44784 q -0.09165,0.46915 -0.347978,0.69285 -0.256324,0.2237 -0.702171,0.2237 -0.347979,0 -0.551484,-0.17399 -0.201952,-0.17554 -0.201952,-0.47537 0,-0.0544 0.0078,-0.12117 0.0078,-0.0684 0.0233,-0.14602 z"
           style="font-style:italic;font-variant:normal;font-weight:normal;font-stretch:normal;font-size:3.18151855px;font-family:sans-serif;-inkscape-font-specification:'sans-serif Italic';fill:#f9f85e;fill-opacity:1;stroke-width:0.29826736px"
           id="path4560"
           inkscape:connector-curvature="0" />
        <path
           d="m 54.601397,288.86383 h 0.28584 l -0.470704,2.41721 h -0.285839 z"
           style="font-style:italic;font-variant:normal;font-weight:normal;font-stretch:normal;font-size:3.18151855px;font-family:sans-serif;-inkscape-font-specification:'sans-serif Italic';fill:#f9f85e;fill-opacity:1;stroke-width:0.29826736px"
           id="path4562"
           inkscape:connector-curvature="0" />
        <path
           d="m 57.75806,290.23089 -0.203506,1.05015 h -0.285839 l 0.200398,-1.04083 q 0.01243,-0.0668 0.01864,-0.11496 0.0062,-0.0482 0.0062,-0.0823 0,-0.13982 -0.07767,-0.21749 -0.07767,-0.0777 -0.217487,-0.0777 -0.208166,0 -0.37128,0.1569 -0.163115,0.15534 -0.211273,0.40545 l -0.191078,0.97093 h -0.285839 l 0.203505,-1.04083 q 0.01243,-0.0575 0.01864,-0.10564 0.0062,-0.0497 0.0062,-0.0885 0,-0.14136 -0.07767,-0.21904 -0.07767,-0.0792 -0.21438,-0.0792 -0.211273,0 -0.374387,0.1569 -0.163115,0.15534 -0.211273,0.40545 l -0.191078,0.97093 h -0.285839 l 0.340211,-1.7399 h 0.285839 l -0.05437,0.27031 q 0.116511,-0.15224 0.271858,-0.23147 0.156901,-0.0808 0.335551,-0.0808 0.189524,0 0.310695,0.0994 0.122725,0.0994 0.14758,0.27652 0.130492,-0.18331 0.301375,-0.27962 0.172435,-0.0963 0.363513,-0.0963 0.2237,0 0.344872,0.12894 0.122724,0.12894 0.122724,0.36506 0,0.0513 -0.0062,0.11341 -0.0062,0.0606 -0.01864,0.12428 z"
           style="font-style:italic;font-variant:normal;font-weight:normal;font-stretch:normal;font-size:3.18151855px;font-family:sans-serif;-inkscape-font-specification:'sans-serif Italic';fill:#f9f85e;fill-opacity:1;stroke-width:0.29826736px"
           id="path4564"
           inkscape:connector-curvature="0" />
        <path
           d="m 60.544997,290.25574 q 0.0047,-0.0249 0.0062,-0.0513 0.0031,-0.0264 0.0031,-0.0528 0,-0.18952 -0.111851,-0.29982 -0.110297,-0.1103 -0.301374,-0.1103 -0.212826,0 -0.375941,0.13515 -0.163115,0.1336 -0.247003,0.38061 z m 0.248556,0.2237 h -1.329776 q -0.0093,0.059 -0.01243,0.0932 -0.0031,0.0342 -0.0031,0.059 0,0.21594 0.132045,0.334 0.133599,0.11806 0.375941,0.11806 0.186417,0 0.352639,-0.0419 0.166222,-0.0419 0.309142,-0.12272 l -0.05437,0.28273 q -0.153794,0.0621 -0.318462,0.0932 -0.163115,0.0311 -0.332444,0.0311 -0.36196,0 -0.557698,-0.17244 -0.194184,-0.17399 -0.194184,-0.49245 0,-0.27186 0.09631,-0.50488 0.09787,-0.23457 0.28584,-0.41789 0.121171,-0.11495 0.287393,-0.17709 0.167775,-0.0621 0.355746,-0.0621 0.29516,0 0.469149,0.1771 0.175543,0.17709 0.175543,0.47536 0,0.0715 -0.0093,0.15379 -0.0093,0.0808 -0.02796,0.17399 z"
           style="font-style:italic;font-variant:normal;font-weight:normal;font-stretch:normal;font-size:3.18151855px;font-family:sans-serif;-inkscape-font-specification:'sans-serif Italic';fill:#f9f85e;fill-opacity:1;stroke-width:0.29826736px"
           id="path4566"
           inkscape:connector-curvature="0" />
        <path
           d="m 61.049962,290.88645 h 0.327783 l -0.07612,0.39459 h -0.327784 z"
           style="font-style:italic;font-variant:normal;font-weight:normal;font-stretch:normal;font-size:3.18151855px;font-family:sans-serif;-inkscape-font-specification:'sans-serif Italic';fill:#f9f85e;fill-opacity:1;stroke-width:0.29826736px"
           id="path4568"
           inkscape:connector-curvature="0" />
        <path
           d="m 62.090968,291.28104 -0.407011,-2.31934 h 0.307588 l 0.337105,1.99466 1.12627,-1.99466 h 0.341764 l -1.340649,2.31934 z"
           style="font-style:italic;font-variant:normal;font-weight:normal;font-stretch:normal;font-size:3.18151855px;font-family:sans-serif;-inkscape-font-specification:'sans-serif Italic';fill:#f9f85e;fill-opacity:1;stroke-width:0.29826736px"
           id="path4570"
           inkscape:connector-curvature="0" />
        <path
           d="m 63.504632,290.88645 h 0.327783 l -0.07612,0.39459 h -0.327784 z"
           style="font-style:italic;font-variant:normal;font-weight:normal;font-stretch:normal;font-size:3.18151855px;font-family:sans-serif;-inkscape-font-specification:'sans-serif Italic';fill:#f9f85e;fill-opacity:1;stroke-width:0.29826736px"
           id="path4572"
           inkscape:connector-curvature="0" />
      </g>
    </g>
    <g
       id="g4768"
       transform="translate(-31.577161,25.163426)">
      <g
         aria-label="FRRM"
         transform="matrix(1.2051028,0,0,1.3469224,20.61553,-130.54923)"
         style="font-style:italic;font-variant:normal;font-weight:bold;font-stretch:normal;font-size:17.21329308px;line-height:2.55844736px;font-family:sans-serif;-inkscape-font-specification:'sans-serif Bold Italic';letter-spacing:0px;word-spacing:0px;fill:#ff60ce;fill-opacity:1;stroke:none;stroke-width:1.58074129;stroke-linecap:butt;stroke-linejoin:miter;stroke-miterlimit:4;stroke-dasharray:none;stroke-opacity:1"
         id="text4491-3-0-4-6">
        <path
           d="m 18.028995,259.56424 h 8.724316 l -0.479081,2.44583 h -5.488418 l -0.453866,2.33657 h 5.169031 l -0.487486,2.44583 h -5.160626 l -1.033806,5.32032 h -3.235898 z"
           style="font-style:italic;font-variant:normal;font-weight:bold;font-stretch:normal;font-size:17.21329308px;font-family:sans-serif;-inkscape-font-specification:'sans-serif Bold Italic';fill:#ff60ce;fill-opacity:1;stroke-width:1.58074129"
           id="path4504-7"
           inkscape:connector-curvature="0" />
        <path
           d="m 32.347847,265.1283 q 1.101046,0 1.664176,-0.5127 0.571535,-0.5127 0.571535,-1.50449 0,-0.62196 -0.395032,-0.90773 -0.386626,-0.29417 -1.227119,-0.29417 h -1.336384 l -0.638774,3.21909 z m -1.79025,2.23571 -0.932947,4.74878 h -3.235897 l 2.445834,-12.54855 h 4.782404 q 2.067612,0 3.135038,0.77325 1.067426,0.77325 1.067426,2.27773 0,1.5213 -0.840493,2.50467 -0.840492,0.98338 -2.277735,1.12626 0.655584,0.13448 1.092641,0.6724 0.437056,0.52951 0.764848,1.63055 l 1.067426,3.56369 h -3.219088 l -0.941352,-3.11823 q -0.285767,-0.93294 -0.697609,-1.27754 -0.403436,-0.35301 -1.17669,-0.35301 z"
           style="font-style:italic;font-variant:normal;font-weight:bold;font-stretch:normal;font-size:17.21329308px;font-family:sans-serif;-inkscape-font-specification:'sans-serif Bold Italic';fill:#ff60ce;fill-opacity:1;stroke-width:1.58074129"
           id="path4506-5"
           inkscape:connector-curvature="0" />
        <path
           d="m 45.044695,265.1283 q 1.101045,0 1.664176,-0.5127 0.571535,-0.5127 0.571535,-1.50449 0,-0.62196 -0.395032,-0.90773 -0.386627,-0.29417 -1.227119,-0.29417 h -1.336384 l -0.638775,3.21909 z m -1.79025,2.23571 -0.932947,4.74878 h -3.235897 l 2.445834,-12.54855 h 4.782404 q 2.067612,0 3.135038,0.77325 1.067426,0.77325 1.067426,2.27773 0,1.5213 -0.840493,2.50467 -0.840492,0.98338 -2.277735,1.12626 0.655584,0.13448 1.09264,0.6724 0.437057,0.52951 0.764849,1.63055 l 1.067426,3.56369 h -3.219088 l -0.941352,-3.11823 q -0.285767,-0.93294 -0.697609,-1.27754 -0.403436,-0.35301 -1.17669,-0.35301 z"
           style="font-style:italic;font-variant:normal;font-weight:bold;font-stretch:normal;font-size:17.21329308px;font-family:sans-serif;-inkscape-font-specification:'sans-serif Bold Italic';fill:#ff60ce;fill-opacity:1;stroke-width:1.58074129"
           id="path4508-3"
           inkscape:connector-curvature="0" />
        <path
           d="m 54.365612,259.56424 h 3.975531 l 1.613746,6.6651 4.236084,-6.6651 h 4.135225 l -2.445834,12.54855 h -3.067799 l 1.790249,-9.26223 -4.353752,6.85002 h -1.739821 l -1.731415,-6.85002 -1.790249,9.26223 h -3.067799 z"
           style="font-style:italic;font-variant:normal;font-weight:bold;font-stretch:normal;font-size:17.21329308px;font-family:sans-serif;-inkscape-font-specification:'sans-serif Bold Italic';fill:#ff60ce;fill-opacity:1;stroke-width:1.58074129"
           id="path4510-5"
           inkscape:connector-curvature="0" />
      </g>
      <g
         aria-label="FRRM"
         transform="matrix(1.2051028,0,0,1.3469224,20.61553,-130.54923)"
         style="font-style:italic;font-variant:normal;font-weight:bold;font-stretch:normal;font-size:17.21329308px;line-height:2.55844736px;font-family:sans-serif;-inkscape-font-specification:'sans-serif Bold Italic';letter-spacing:0px;word-spacing:0px;fill:#f9f85e;fill-opacity:1;stroke:none;stroke-width:1.58074129;stroke-linecap:butt;stroke-linejoin:miter;stroke-miterlimit:4;stroke-dasharray:none;stroke-opacity:1"
         id="text4491-3-0-4-4-6">
        <path
           d="m 18.696041,259.06521 h 8.724315 l -0.47908,2.44584 h -5.488419 l -0.453866,2.33657 h 5.169031 l -0.487486,2.44583 H 20.51991 l -1.033806,5.32032 h -3.235897 z"
           style="font-style:italic;font-variant:normal;font-weight:bold;font-stretch:normal;font-size:17.21329308px;font-family:sans-serif;-inkscape-font-specification:'sans-serif Bold Italic';fill:#f9f85e;fill-opacity:1;stroke-width:1.58074129"
           id="path4513-2"
           inkscape:connector-curvature="0" />
        <path
           d="m 33.014893,264.62927 q 1.101045,0 1.664175,-0.5127 0.571535,-0.5127 0.571535,-1.50448 0,-0.62196 -0.395031,-0.90773 -0.386627,-0.29417 -1.22712,-0.29417 h -1.336383 l -0.638775,3.21908 z m -1.79025,2.23572 -0.932947,4.74878 h -3.235898 l 2.445835,-12.54856 h 4.782404 q 2.067612,0 3.135038,0.77326 1.067426,0.77325 1.067426,2.27773 0,1.52129 -0.840493,2.50467 -0.840493,0.98338 -2.277736,1.12626 0.655585,0.13448 1.092641,0.67239 0.437056,0.52951 0.764849,1.63056 l 1.067425,3.56369 H 35.0741 l -0.941352,-3.11823 q -0.285768,-0.93295 -0.697609,-1.27755 -0.403437,-0.353 -1.17669,-0.353 z"
           style="font-style:italic;font-variant:normal;font-weight:bold;font-stretch:normal;font-size:17.21329308px;font-family:sans-serif;-inkscape-font-specification:'sans-serif Bold Italic';fill:#f9f85e;fill-opacity:1;stroke-width:1.58074129"
           id="path4515-9"
           inkscape:connector-curvature="0" />
        <path
           d="m 45.71174,264.62927 q 1.101046,0 1.664176,-0.5127 0.571535,-0.5127 0.571535,-1.50448 0,-0.62196 -0.395031,-0.90773 -0.386627,-0.29417 -1.22712,-0.29417 h -1.336383 l -0.638775,3.21908 z m -1.790249,2.23572 -0.932947,4.74878 h -3.235898 l 2.445834,-12.54856 h 4.782405 q 2.067612,0 3.135038,0.77326 1.067426,0.77325 1.067426,2.27773 0,1.52129 -0.840493,2.50467 -0.840493,0.98338 -2.277736,1.12626 0.655585,0.13448 1.092641,0.67239 0.437056,0.52951 0.764849,1.63056 l 1.067425,3.56369 h -3.219087 l -0.941352,-3.11823 q -0.285768,-0.93295 -0.697609,-1.27755 -0.403437,-0.353 -1.17669,-0.353 z"
           style="font-style:italic;font-variant:normal;font-weight:bold;font-stretch:normal;font-size:17.21329308px;font-family:sans-serif;-inkscape-font-specification:'sans-serif Bold Italic';fill:#f9f85e;fill-opacity:1;stroke-width:1.58074129"
           id="path4517-1"
           inkscape:connector-curvature="0" />
        <path
           d="m 55.032657,259.06521 h 3.975532 l 1.613746,6.66511 4.236084,-6.66511 h 4.135224 l -2.445834,12.54856 H 63.47961 l 1.79025,-9.26223 -4.353753,6.85002 h -1.73982 l -1.731415,-6.85002 -1.79025,9.26223 h -3.067799 z"
           style="font-style:italic;font-variant:normal;font-weight:bold;font-stretch:normal;font-size:17.21329308px;font-family:sans-serif;-inkscape-font-specification:'sans-serif Bold Italic';fill:#f9f85e;fill-opacity:1;stroke-width:1.58074129"
           id="path4519-2"
           inkscape:connector-curvature="0" />
      </g>
      <g
         transform="matrix(1.2740408,0,0,1.2740408,20.61553,-130.54923)"
         aria-label="Freiraum Hackerspace Ulm e.V."
         style="font-style:normal;font-variant:normal;font-weight:normal;font-stretch:normal;font-size:3.18151855px;line-height:7.45668364px;font-family:sans-serif;-inkscape-font-specification:sans-serif;letter-spacing:0px;word-spacing:0px;fill:#f9f85e;fill-opacity:1;stroke:none;stroke-width:0.29826736px;stroke-linecap:butt;stroke-linejoin:miter;stroke-opacity:1"
         id="text9407-4-9-7">
        <path
           d="m 15.284477,288.9617 h 1.329775 l -0.05127,0.26409 h -1.017526 l -0.133599,0.68353 h 0.919657 l -0.05126,0.26409 h -0.919658 l -0.215933,1.10763 h -0.312249 z"
           style="font-style:italic;font-variant:normal;font-weight:normal;font-stretch:normal;font-size:3.18151855px;font-family:sans-serif;-inkscape-font-specification:'sans-serif Italic';fill:#f9f85e;fill-opacity:1;stroke-width:0.29826736px"
           id="path4522-0"
           inkscape:connector-curvature="0" />
        <path
           d="m 17.998399,289.80523 q -0.0435,-0.0233 -0.09942,-0.0357 -0.05593,-0.0124 -0.119618,-0.0124 -0.228361,0 -0.399243,0.17399 -0.170883,0.17243 -0.226808,0.46293 l -0.175543,0.88704 h -0.285839 l 0.340211,-1.7399 h 0.28584 l -0.05437,0.27031 q 0.113404,-0.15069 0.270305,-0.23147 0.158454,-0.0808 0.337104,-0.0808 0.0466,0 0.09166,0.006 0.04505,0.005 0.0901,0.0171 z"
           style="font-style:italic;font-variant:normal;font-weight:normal;font-stretch:normal;font-size:3.18151855px;font-family:sans-serif;-inkscape-font-specification:'sans-serif Italic';fill:#f9f85e;fill-opacity:1;stroke-width:0.29826736px"
           id="path4524-9"
           inkscape:connector-curvature="0" />
        <path
           d="m 19.421383,290.25574 q 0.0047,-0.0249 0.0062,-0.0513 0.0031,-0.0264 0.0031,-0.0528 0,-0.18952 -0.111851,-0.29982 -0.110296,-0.1103 -0.301374,-0.1103 -0.212826,0 -0.375941,0.13515 -0.163115,0.1336 -0.247003,0.38061 z m 0.248556,0.2237 h -1.329775 q -0.0093,0.059 -0.01243,0.0932 -0.0031,0.0342 -0.0031,0.059 0,0.21594 0.132045,0.334 0.133599,0.11806 0.375941,0.11806 0.186418,0 0.35264,-0.0419 0.166221,-0.0419 0.309141,-0.12272 l -0.05437,0.28273 q -0.153795,0.0621 -0.318463,0.0932 -0.163115,0.0311 -0.332444,0.0311 -0.36196,0 -0.557698,-0.17244 -0.194184,-0.17399 -0.194184,-0.49245 0,-0.27186 0.09632,-0.50488 0.09787,-0.23457 0.28584,-0.41789 0.121171,-0.11495 0.287393,-0.17709 0.167775,-0.0621 0.355746,-0.0621 0.29516,0 0.46915,0.1771 0.175542,0.17709 0.175542,0.47536 0,0.0715 -0.0093,0.15379 -0.0093,0.0808 -0.02796,0.17399 z"
           style="font-style:italic;font-variant:normal;font-weight:normal;font-stretch:normal;font-size:3.18151855px;font-family:sans-serif;-inkscape-font-specification:'sans-serif Italic';fill:#f9f85e;fill-opacity:1;stroke-width:0.29826736px"
           id="path4526-3"
           inkscape:connector-curvature="0" />
        <path
           d="m 20.431142,288.86383 h 0.28584 l -0.06991,0.36196 h -0.28584 z m -0.130492,0.67731 h 0.28584 l -0.340211,1.7399 h -0.28584 z"
           style="font-style:italic;font-variant:normal;font-weight:normal;font-stretch:normal;font-size:3.18151855px;font-family:sans-serif;-inkscape-font-specification:'sans-serif Italic';fill:#f9f85e;fill-opacity:1;stroke-width:0.29826736px"
           id="path4528-6"
           inkscape:connector-curvature="0" />
        <path
           d="m 22.149286,289.80523 q -0.0435,-0.0233 -0.09942,-0.0357 -0.05592,-0.0124 -0.119618,-0.0124 -0.228361,0 -0.399243,0.17399 -0.170883,0.17243 -0.226808,0.46293 l -0.175542,0.88704 h -0.28584 l 0.340211,-1.7399 h 0.28584 l -0.05437,0.27031 q 0.113404,-0.15069 0.270305,-0.23147 0.158454,-0.0808 0.337104,-0.0808 0.0466,0 0.09165,0.006 0.04505,0.005 0.0901,0.0171 z"
           style="font-style:italic;font-variant:normal;font-weight:normal;font-stretch:normal;font-size:3.18151855px;font-family:sans-serif;-inkscape-font-specification:'sans-serif Italic';fill:#f9f85e;fill-opacity:1;stroke-width:0.29826736px"
           id="path4530-0"
           inkscape:connector-curvature="0" />
        <path
           d="m 23.75092,290.28837 -0.194184,0.99267 h -0.28584 l 0.05282,-0.26409 q -0.125831,0.15534 -0.287393,0.23302 -0.160008,0.0761 -0.357299,0.0761 -0.222147,0 -0.365067,-0.13516 -0.141366,-0.1367 -0.141366,-0.34953 0,-0.30448 0.242342,-0.48157 0.243896,-0.1771 0.671101,-0.1771 h 0.39769 l 0.01553,-0.0761 q 0.0031,-0.0124 0.0047,-0.0264 0.0016,-0.0155 0.0016,-0.0466 0,-0.13826 -0.113404,-0.21438 -0.11185,-0.0777 -0.315355,-0.0777 -0.139813,0 -0.287393,0.0357 -0.146027,0.0357 -0.301375,0.10719 l 0.04971,-0.26409 q 0.161562,-0.0606 0.315356,-0.0901 0.155348,-0.0311 0.299821,-0.0311 0.307588,0 0.467596,0.1336 0.161562,0.1336 0.161562,0.38837 0,0.0513 -0.0078,0.12117 -0.0078,0.0684 -0.0233,0.14603 z m -0.309142,0.11806 h -0.285839 q -0.351086,0 -0.520415,0.0948 -0.167775,0.0932 -0.167775,0.2905 0,0.13671 0.08544,0.21438 0.08699,0.0777 0.239235,0.0777 0.233022,0 0.407011,-0.16622 0.173989,-0.16777 0.229915,-0.4474 z"
           style="font-style:italic;font-variant:normal;font-weight:normal;font-stretch:normal;font-size:3.18151855px;font-family:sans-serif;-inkscape-font-specification:'sans-serif Italic';fill:#f9f85e;fill-opacity:1;stroke-width:0.29826736px"
           id="path4532-6"
           inkscape:connector-curvature="0" />
        <path
           d="m 24.206088,290.59129 0.203506,-1.05015 h 0.287393 l -0.203505,1.03928 q -0.01553,0.0761 -0.0233,0.13049 -0.0062,0.0544 -0.0062,0.0901 0,0.13205 0.08078,0.20506 0.08078,0.0715 0.228361,0.0715 0.229915,0 0.39769,-0.15535 0.167775,-0.15534 0.21904,-0.41788 l 0.191078,-0.96316 h 0.285839 l -0.337104,1.7399 h -0.28584 l 0.05748,-0.27342 q -0.121171,0.15225 -0.288947,0.23613 -0.166221,0.0823 -0.354192,0.0823 -0.228361,0 -0.355746,-0.12428 -0.127385,-0.12583 -0.127385,-0.34953 0,-0.0466 0.0078,-0.11651 0.0078,-0.0699 0.0233,-0.14448 z"
           style="font-style:italic;font-variant:normal;font-weight:normal;font-stretch:normal;font-size:3.18151855px;font-family:sans-serif;-inkscape-font-specification:'sans-serif Italic';fill:#f9f85e;fill-opacity:1;stroke-width:0.29826736px"
           id="path4534-2"
           inkscape:connector-curvature="0" />
        <path
           d="m 28.869623,290.23089 -0.203505,1.05015 h -0.28584 l 0.200399,-1.04083 q 0.01243,-0.0668 0.01864,-0.11496 0.0062,-0.0482 0.0062,-0.0823 0,-0.13982 -0.07767,-0.21749 -0.07767,-0.0777 -0.217487,-0.0777 -0.208166,0 -0.371281,0.1569 -0.163115,0.15534 -0.211273,0.40545 l -0.191077,0.97093 h -0.28584 l 0.203506,-1.04083 q 0.01243,-0.0575 0.01864,-0.10564 0.0062,-0.0497 0.0062,-0.0885 0,-0.14136 -0.07767,-0.21904 -0.07767,-0.0792 -0.21438,-0.0792 -0.211273,0 -0.374388,0.1569 -0.163115,0.15534 -0.211273,0.40545 l -0.191077,0.97093 h -0.28584 l 0.340212,-1.7399 h 0.285839 l -0.05437,0.27031 q 0.11651,-0.15224 0.271858,-0.23147 0.156901,-0.0808 0.335551,-0.0808 0.189524,0 0.310695,0.0994 0.122724,0.0994 0.14758,0.27652 0.130492,-0.18331 0.301374,-0.27962 0.172436,-0.0963 0.363514,-0.0963 0.2237,0 0.344871,0.12894 0.122725,0.12894 0.122725,0.36506 0,0.0513 -0.0062,0.11341 -0.0062,0.0606 -0.01864,0.12428 z"
           style="font-style:italic;font-variant:normal;font-weight:normal;font-stretch:normal;font-size:3.18151855px;font-family:sans-serif;-inkscape-font-specification:'sans-serif Italic';fill:#f9f85e;fill-opacity:1;stroke-width:0.29826736px"
           id="path4536-6"
           inkscape:connector-curvature="0" />
        <path
           d="m 30.663887,288.9617 h 0.315356 l -0.184864,0.95072 h 1.138698 l 0.184864,-0.95072 h 0.315355 l -0.452061,2.31934 h -0.315356 l 0.215933,-1.10452 h -1.138697 l -0.215933,1.10452 h -0.315356 z"
           style="font-style:italic;font-variant:normal;font-weight:normal;font-stretch:normal;font-size:3.18151855px;font-family:sans-serif;-inkscape-font-specification:'sans-serif Italic';fill:#f9f85e;fill-opacity:1;stroke-width:0.29826736px"
           id="path4538-1"
           inkscape:connector-curvature="0" />
        <path
           d="m 34.22756,290.28837 -0.194184,0.99267 h -0.28584 l 0.05282,-0.26409 q -0.125831,0.15534 -0.287393,0.23302 -0.160008,0.0761 -0.357299,0.0761 -0.222147,0 -0.365067,-0.13516 -0.141366,-0.1367 -0.141366,-0.34953 0,-0.30448 0.242342,-0.48157 0.243896,-0.1771 0.671102,-0.1771 h 0.397689 l 0.01553,-0.0761 q 0.0031,-0.0124 0.0047,-0.0264 0.0016,-0.0155 0.0016,-0.0466 0,-0.13826 -0.113404,-0.21438 -0.11185,-0.0777 -0.315355,-0.0777 -0.139813,0 -0.287393,0.0357 -0.146027,0.0357 -0.301375,0.10719 l 0.04971,-0.26409 q 0.161561,-0.0606 0.315355,-0.0901 0.155348,-0.0311 0.299821,-0.0311 0.307588,0 0.467596,0.1336 0.161562,0.1336 0.161562,0.38837 0,0.0513 -0.0078,0.12117 -0.0078,0.0684 -0.0233,0.14603 z m -0.309141,0.11806 h -0.28584 q -0.351086,0 -0.520414,0.0948 -0.167776,0.0932 -0.167776,0.2905 0,0.13671 0.08544,0.21438 0.087,0.0777 0.239236,0.0777 0.233021,0 0.40701,-0.16622 0.17399,-0.16777 0.229915,-0.4474 z"
           style="font-style:italic;font-variant:normal;font-weight:normal;font-stretch:normal;font-size:3.18151855px;font-family:sans-serif;-inkscape-font-specification:'sans-serif Italic';fill:#f9f85e;fill-opacity:1;stroke-width:0.29826736px"
           id="path4540-8"
           inkscape:connector-curvature="0" />
        <path
           d="m 36.175619,289.60794 -0.05748,0.28274 q -0.10253,-0.0746 -0.21904,-0.11185 -0.114957,-0.0373 -0.239236,-0.0373 -0.136705,0 -0.260983,0.0482 -0.122725,0.0482 -0.206613,0.13671 -0.133599,0.13515 -0.206612,0.3169 -0.07301,0.18176 -0.07301,0.37595 0,0.23457 0.11651,0.34953 0.118064,0.11495 0.3573,0.11495 0.118064,0 0.250109,-0.0357 0.133599,-0.0357 0.278073,-0.10718 l -0.05437,0.28273 q -0.124278,0.0513 -0.256324,0.0761 -0.130492,0.0264 -0.268751,0.0264 -0.346425,0 -0.532842,-0.17244 -0.186417,-0.17399 -0.186417,-0.49556 0,-0.2703 0.09632,-0.49711 0.09787,-0.22836 0.288947,-0.41012 0.130492,-0.12428 0.306034,-0.18797 0.175543,-0.0637 0.383709,-0.0637 0.121171,0 0.240789,0.028 0.119617,0.0264 0.243895,0.0808 z"
           style="font-style:italic;font-variant:normal;font-weight:normal;font-stretch:normal;font-size:3.18151855px;font-family:sans-serif;-inkscape-font-specification:'sans-serif Italic';fill:#f9f85e;fill-opacity:1;stroke-width:0.29826736px"
           id="path4542-7"
           inkscape:connector-curvature="0" />
        <path
           d="m 36.804778,288.86383 h 0.285839 l -0.273412,1.409 0.980244,-0.73169 h 0.37128 l -1.093647,0.83267 0.798487,0.90723 h -0.346425 l -0.742562,-0.84975 -0.164668,0.84975 h -0.28584 z"
           style="font-style:italic;font-variant:normal;font-weight:normal;font-stretch:normal;font-size:3.18151855px;font-family:sans-serif;-inkscape-font-specification:'sans-serif Italic';fill:#f9f85e;fill-opacity:1;stroke-width:0.29826736px"
           id="path4544-9"
           inkscape:connector-curvature="0" />
        <path
           d="m 39.597928,290.25574 q 0.0047,-0.0249 0.0062,-0.0513 0.0031,-0.0264 0.0031,-0.0528 0,-0.18952 -0.11185,-0.29982 -0.110297,-0.1103 -0.301374,-0.1103 -0.212826,0 -0.375941,0.13515 -0.163115,0.1336 -0.247003,0.38061 z m 0.248556,0.2237 h -1.329776 q -0.0093,0.059 -0.01243,0.0932 -0.0031,0.0342 -0.0031,0.059 0,0.21594 0.132045,0.334 0.133599,0.11806 0.375941,0.11806 0.186417,0 0.352639,-0.0419 0.166222,-0.0419 0.309142,-0.12272 l -0.05437,0.28273 q -0.153794,0.0621 -0.318462,0.0932 -0.163115,0.0311 -0.332444,0.0311 -0.36196,0 -0.557698,-0.17244 -0.194184,-0.17399 -0.194184,-0.49245 0,-0.27186 0.09632,-0.50488 0.09787,-0.23457 0.28584,-0.41789 0.121171,-0.11495 0.287393,-0.17709 0.167775,-0.0621 0.355746,-0.0621 0.29516,0 0.469149,0.1771 0.175543,0.17709 0.175543,0.47536 0,0.0715 -0.0093,0.15379 -0.0093,0.0808 -0.02796,0.17399 z"
           style="font-style:italic;font-variant:normal;font-weight:normal;font-stretch:normal;font-size:3.18151855px;font-family:sans-serif;-inkscape-font-specification:'sans-serif Italic';fill:#f9f85e;fill-opacity:1;stroke-width:0.29826736px"
           id="path4546-2"
           inkscape:connector-curvature="0" />
        <path
           d="m 41.443458,289.80523 q -0.0435,-0.0233 -0.09942,-0.0357 -0.05592,-0.0124 -0.119618,-0.0124 -0.228361,0 -0.399243,0.17399 -0.170882,0.17243 -0.226807,0.46293 l -0.175543,0.88704 h -0.28584 l 0.340212,-1.7399 h 0.285839 l -0.05437,0.27031 q 0.113404,-0.15069 0.270305,-0.23147 0.158455,-0.0808 0.337105,-0.0808 0.0466,0 0.09165,0.006 0.04505,0.005 0.0901,0.0171 z"
           style="font-style:italic;font-variant:normal;font-weight:normal;font-stretch:normal;font-size:3.18151855px;font-family:sans-serif;-inkscape-font-specification:'sans-serif Italic';fill:#f9f85e;fill-opacity:1;stroke-width:0.29826736px"
           id="path4548-0"
           inkscape:connector-curvature="0" />
        <path
           d="m 42.927026,289.59241 -0.05437,0.2703 q -0.113404,-0.0621 -0.239235,-0.0932 -0.125832,-0.0311 -0.259431,-0.0311 -0.225254,0 -0.355746,0.0777 -0.128938,0.0761 -0.128938,0.20816 0,0.1538 0.301374,0.23613 0.0233,0.006 0.03418,0.009 l 0.09166,0.028 q 0.285839,0.0792 0.380601,0.16622 0.09632,0.087 0.09632,0.23768 0,0.27652 -0.220594,0.45051 -0.21904,0.17399 -0.574786,0.17399 -0.138259,0 -0.2905,-0.0264 -0.15224,-0.0264 -0.335551,-0.0823 l 0.05593,-0.29516 q 0.156901,0.0808 0.309141,0.12273 0.152241,0.0419 0.292054,0.0419 0.209719,0 0.340211,-0.0901 0.132045,-0.0901 0.132045,-0.22836 0,-0.14913 -0.344871,-0.24079 l -0.02952,-0.008 -0.09787,-0.0249 q -0.217487,-0.0575 -0.318463,-0.15069 -0.100976,-0.0948 -0.100976,-0.24079 0,-0.27807 0.208166,-0.44119 0.209719,-0.16311 0.568572,-0.16311 0.141366,0 0.274965,0.0233 0.135153,0.0233 0.265645,0.0699 z"
           style="font-style:italic;font-variant:normal;font-weight:normal;font-stretch:normal;font-size:3.18151855px;font-family:sans-serif;-inkscape-font-specification:'sans-serif Italic';fill:#f9f85e;fill-opacity:1;stroke-width:0.29826736px"
           id="path4550-2"
           inkscape:connector-curvature="0" />
        <path
           d="m 44.573711,290.20914 q 0,-0.22836 -0.09942,-0.34953 -0.09942,-0.12118 -0.285839,-0.12118 -0.127385,0 -0.243896,0.0652 -0.114957,0.0652 -0.205059,0.18952 -0.08855,0.12273 -0.141366,0.29672 -0.05282,0.17399 -0.05282,0.34487 0,0.21749 0.09942,0.33555 0.09942,0.11651 0.282733,0.11651 0.135152,0 0.25011,-0.0637 0.11651,-0.0637 0.198844,-0.18486 0.08855,-0.12739 0.14292,-0.29983 0.05437,-0.17243 0.05437,-0.32933 z m -0.885481,-0.40391 q 0.114957,-0.15068 0.270304,-0.22836 0.156902,-0.0777 0.347979,-0.0777 0.267198,0 0.414778,0.17554 0.14758,0.17399 0.14758,0.48935 0,0.25787 -0.09165,0.49245 -0.09166,0.23302 -0.264091,0.41788 -0.114957,0.12273 -0.25943,0.18797 -0.144473,0.0637 -0.304481,0.0637 -0.184864,0 -0.310696,-0.0761 -0.125831,-0.0777 -0.18797,-0.22992 l -0.17865,0.92277 h -0.285839 l 0.467596,-2.40168 h 0.285839 z"
           style="font-style:italic;font-variant:normal;font-weight:normal;font-stretch:normal;font-size:3.18151855px;font-family:sans-serif;-inkscape-font-specification:'sans-serif Italic';fill:#f9f85e;fill-opacity:1;stroke-width:0.29826736px"
           id="path4552-3"
           inkscape:connector-curvature="0" />
        <path
           d="m 46.723721,290.28837 -0.194185,0.99267 h -0.285839 l 0.05282,-0.26409 q -0.125832,0.15534 -0.287393,0.23302 -0.160008,0.0761 -0.3573,0.0761 -0.222147,0 -0.365066,-0.13516 -0.141367,-0.1367 -0.141367,-0.34953 0,-0.30448 0.242343,-0.48157 0.243895,-0.1771 0.671101,-0.1771 h 0.39769 l 0.01553,-0.0761 q 0.0031,-0.0124 0.0047,-0.0264 0.0016,-0.0155 0.0016,-0.0466 0,-0.13826 -0.113404,-0.21438 -0.11185,-0.0777 -0.315356,-0.0777 -0.139813,0 -0.287393,0.0357 -0.146026,0.0357 -0.301374,0.10719 l 0.04971,-0.26409 q 0.161562,-0.0606 0.315356,-0.0901 0.155347,-0.0311 0.299821,-0.0311 0.307588,0 0.467596,0.1336 0.161561,0.1336 0.161561,0.38837 0,0.0513 -0.0078,0.12117 -0.0078,0.0684 -0.0233,0.14603 z m -0.309142,0.11806 H 46.12874 q -0.351086,0 -0.520415,0.0948 -0.167775,0.0932 -0.167775,0.2905 0,0.13671 0.08544,0.21438 0.087,0.0777 0.239235,0.0777 0.233022,0 0.407011,-0.16622 0.173989,-0.16777 0.229914,-0.4474 z"
           style="font-style:italic;font-variant:normal;font-weight:normal;font-stretch:normal;font-size:3.18151855px;font-family:sans-serif;-inkscape-font-specification:'sans-serif Italic';fill:#f9f85e;fill-opacity:1;stroke-width:0.29826736px"
           id="path4554-7"
           inkscape:connector-curvature="0" />
        <path
           d="m 48.67178,289.60794 -0.05748,0.28274 q -0.102529,-0.0746 -0.21904,-0.11185 -0.114957,-0.0373 -0.239235,-0.0373 -0.136706,0 -0.260984,0.0482 -0.122725,0.0482 -0.206612,0.13671 -0.133599,0.13515 -0.206613,0.3169 -0.07301,0.18176 -0.07301,0.37595 0,0.23457 0.116511,0.34953 0.118064,0.11495 0.357299,0.11495 0.118064,0 0.25011,-0.0357 0.133599,-0.0357 0.278072,-0.10718 l -0.05437,0.28273 q -0.124278,0.0513 -0.256323,0.0761 -0.130492,0.0264 -0.268751,0.0264 -0.346426,0 -0.532843,-0.17244 -0.186417,-0.17399 -0.186417,-0.49556 0,-0.2703 0.09632,-0.49711 0.09787,-0.22836 0.288946,-0.41012 0.130492,-0.12428 0.306035,-0.18797 0.175543,-0.0637 0.383709,-0.0637 0.121171,0 0.240788,0.028 0.119618,0.0264 0.243896,0.0808 z"
           style="font-style:italic;font-variant:normal;font-weight:normal;font-stretch:normal;font-size:3.18151855px;font-family:sans-serif;-inkscape-font-specification:'sans-serif Italic';fill:#f9f85e;fill-opacity:1;stroke-width:0.29826736px"
           id="path4556-5"
           inkscape:connector-curvature="0" />
        <path
           d="m 50.248557,290.25574 q 0.0047,-0.0249 0.0062,-0.0513 0.0031,-0.0264 0.0031,-0.0528 0,-0.18952 -0.11185,-0.29982 -0.110297,-0.1103 -0.301374,-0.1103 -0.212826,0 -0.375941,0.13515 -0.163115,0.1336 -0.247003,0.38061 z m 0.248556,0.2237 h -1.329776 q -0.0093,0.059 -0.01243,0.0932 -0.0031,0.0342 -0.0031,0.059 0,0.21594 0.132045,0.334 0.133599,0.11806 0.375941,0.11806 0.186417,0 0.352639,-0.0419 0.166222,-0.0419 0.309142,-0.12272 l -0.05437,0.28273 q -0.153794,0.0621 -0.318462,0.0932 -0.163115,0.0311 -0.332444,0.0311 -0.36196,0 -0.557698,-0.17244 -0.194184,-0.17399 -0.194184,-0.49245 0,-0.27186 0.09631,-0.50488 0.09787,-0.23457 0.28584,-0.41789 0.121171,-0.11495 0.287393,-0.17709 0.167775,-0.0621 0.355746,-0.0621 0.29516,0 0.469149,0.1771 0.175543,0.17709 0.175543,0.47536 0,0.0715 -0.0093,0.15379 -0.0093,0.0808 -0.02796,0.17399 z"
           style="font-style:italic;font-variant:normal;font-weight:normal;font-stretch:normal;font-size:3.18151855px;font-family:sans-serif;-inkscape-font-specification:'sans-serif Italic';fill:#f9f85e;fill-opacity:1;stroke-width:0.29826736px"
           id="path4558-9"
           inkscape:connector-curvature="0" />
        <path
           d="m 52.18108,288.9617 h 0.315356 l -0.273412,1.409 q -0.01709,0.0948 -0.02486,0.1569 -0.0062,0.0606 -0.0062,0.10719 0,0.21438 0.119618,0.32623 0.119618,0.1103 0.351086,0.1103 0.29982,0 0.466042,-0.16467 0.167776,-0.16467 0.239236,-0.53595 l 0.273411,-1.409 h 0.315356 l -0.279626,1.44784 q -0.09165,0.46915 -0.347978,0.69285 -0.256324,0.2237 -0.702171,0.2237 -0.347979,0 -0.551484,-0.17399 -0.201952,-0.17554 -0.201952,-0.47537 0,-0.0544 0.0078,-0.12117 0.0078,-0.0684 0.0233,-0.14602 z"
           style="font-style:italic;font-variant:normal;font-weight:normal;font-stretch:normal;font-size:3.18151855px;font-family:sans-serif;-inkscape-font-specification:'sans-serif Italic';fill:#f9f85e;fill-opacity:1;stroke-width:0.29826736px"
           id="path4560-2"
           inkscape:connector-curvature="0" />
        <path
           d="m 54.601397,288.86383 h 0.28584 l -0.470704,2.41721 h -0.285839 z"
           style="font-style:italic;font-variant:normal;font-weight:normal;font-stretch:normal;font-size:3.18151855px;font-family:sans-serif;-inkscape-font-specification:'sans-serif Italic';fill:#f9f85e;fill-opacity:1;stroke-width:0.29826736px"
           id="path4562-2"
           inkscape:connector-curvature="0" />
        <path
           d="m 57.75806,290.23089 -0.203506,1.05015 h -0.285839 l 0.200398,-1.04083 q 0.01243,-0.0668 0.01864,-0.11496 0.0062,-0.0482 0.0062,-0.0823 0,-0.13982 -0.07767,-0.21749 -0.07767,-0.0777 -0.217487,-0.0777 -0.208166,0 -0.37128,0.1569 -0.163115,0.15534 -0.211273,0.40545 l -0.191078,0.97093 h -0.285839 l 0.203505,-1.04083 q 0.01243,-0.0575 0.01864,-0.10564 0.0062,-0.0497 0.0062,-0.0885 0,-0.14136 -0.07767,-0.21904 -0.07767,-0.0792 -0.21438,-0.0792 -0.211273,0 -0.374387,0.1569 -0.163115,0.15534 -0.211273,0.40545 l -0.191078,0.97093 h -0.285839 l 0.340211,-1.7399 h 0.285839 l -0.05437,0.27031 q 0.116511,-0.15224 0.271858,-0.23147 0.156901,-0.0808 0.335551,-0.0808 0.189524,0 0.310695,0.0994 0.122725,0.0994 0.14758,0.27652 0.130492,-0.18331 0.301375,-0.27962 0.172435,-0.0963 0.363513,-0.0963 0.2237,0 0.344872,0.12894 0.122724,0.12894 0.122724,0.36506 0,0.0513 -0.0062,0.11341 -0.0062,0.0606 -0.01864,0.12428 z"
           style="font-style:italic;font-variant:normal;font-weight:normal;font-stretch:normal;font-size:3.18151855px;font-family:sans-serif;-inkscape-font-specification:'sans-serif Italic';fill:#f9f85e;fill-opacity:1;stroke-width:0.29826736px"
           id="path4564-8"
           inkscape:connector-curvature="0" />
        <path
           d="m 60.544997,290.25574 q 0.0047,-0.0249 0.0062,-0.0513 0.0031,-0.0264 0.0031,-0.0528 0,-0.18952 -0.111851,-0.29982 -0.110297,-0.1103 -0.301374,-0.1103 -0.212826,0 -0.375941,0.13515 -0.163115,0.1336 -0.247003,0.38061 z m 0.248556,0.2237 h -1.329776 q -0.0093,0.059 -0.01243,0.0932 -0.0031,0.0342 -0.0031,0.059 0,0.21594 0.132045,0.334 0.133599,0.11806 0.375941,0.11806 0.186417,0 0.352639,-0.0419 0.166222,-0.0419 0.309142,-0.12272 l -0.05437,0.28273 q -0.153794,0.0621 -0.318462,0.0932 -0.163115,0.0311 -0.332444,0.0311 -0.36196,0 -0.557698,-0.17244 -0.194184,-0.17399 -0.194184,-0.49245 0,-0.27186 0.09631,-0.50488 0.09787,-0.23457 0.28584,-0.41789 0.121171,-0.11495 0.287393,-0.17709 0.167775,-0.0621 0.355746,-0.0621 0.29516,0 0.469149,0.1771 0.175543,0.17709 0.175543,0.47536 0,0.0715 -0.0093,0.15379 -0.0093,0.0808 -0.02796,0.17399 z"
           style="font-style:italic;font-variant:normal;font-weight:normal;font-stretch:normal;font-size:3.18151855px;font-family:sans-serif;-inkscape-font-specification:'sans-serif Italic';fill:#f9f85e;fill-opacity:1;stroke-width:0.29826736px"
           id="path4566-9"
           inkscape:connector-curvature="0" />
        <path
           d="m 61.049962,290.88645 h 0.327783 l -0.07612,0.39459 h -0.327784 z"
           style="font-style:italic;font-variant:normal;font-weight:normal;font-stretch:normal;font-size:3.18151855px;font-family:sans-serif;-inkscape-font-specification:'sans-serif Italic';fill:#f9f85e;fill-opacity:1;stroke-width:0.29826736px"
           id="path4568-7"
           inkscape:connector-curvature="0" />
        <path
           d="m 62.090968,291.28104 -0.407011,-2.31934 h 0.307588 l 0.337105,1.99466 1.12627,-1.99466 h 0.341764 l -1.340649,2.31934 z"
           style="font-style:italic;font-variant:normal;font-weight:normal;font-stretch:normal;font-size:3.18151855px;font-family:sans-serif;-inkscape-font-specification:'sans-serif Italic';fill:#f9f85e;fill-opacity:1;stroke-width:0.29826736px"
           id="path4570-3"
           inkscape:connector-curvature="0" />
        <path
           d="m 63.504632,290.88645 h 0.327783 l -0.07612,0.39459 h -0.327784 z"
           style="font-style:italic;font-variant:normal;font-weight:normal;font-stretch:normal;font-size:3.18151855px;font-family:sans-serif;-inkscape-font-specification:'sans-serif Italic';fill:#f9f85e;fill-opacity:1;stroke-width:0.29826736px"
           id="path4572-6"
           inkscape:connector-curvature="0" />
      </g>
    </g>
  </g>
</svg>
